<?xml version="1.0" encoding="UTF-8"?>
<svg version="1.1" xmlns="http://www.w3.org/2000/svg" width="512" height="512">
<path d="M0 0 C6.99463246 3.66982958 11.34724409 10.05698948 13.8671875 17.3515625 C14.71236632 21.61536128 15.04800091 25.75270419 15.19503784 30.09347534 C15.21827688 30.74632574 15.24151592 31.39917614 15.26545918 32.07180989 C15.34195323 34.24551676 15.4128891 36.41936894 15.48388672 38.59326172 C15.53790433 40.15751421 15.59230677 41.72175346 15.64706421 43.28598022 C15.76418881 46.64817734 15.87908675 50.01044063 15.99239731 53.3727684 C16.17222304 58.69364127 16.36007538 64.01421185 16.54959106 69.33474731 C17.08751717 84.46223383 17.62036793 99.58987175 18.13232422 114.71826172 C18.41530417 123.07841378 18.70794574 131.4381689 19.01139462 139.79760373 C19.17141189 144.21744572 19.32639468 148.63733775 19.46938705 153.05776596 C19.60393041 157.21639141 19.75108177 161.37438145 19.90774918 165.53223038 C19.96284928 167.05418956 20.01334435 168.57632386 20.05877686 170.09860229 C20.33346568 182.77808202 20.33346568 182.77808202 25.8515625 193.94921875 C30.2914805 197.48620006 35.13675055 200.08716974 40.1171875 202.7890625 C42.38554815 204.03882388 44.65377365 205.2888306 46.921875 206.5390625 C48.07913086 207.17328125 49.23638672 207.8075 50.42871094 208.4609375 C55.71894286 211.3697387 60.97933028 214.33112159 66.2421875 217.2890625 C74.93927026 222.16355989 83.64982538 227.01343901 92.3671875 231.8515625 C106.25000467 239.55650614 120.10258947 247.31479774 133.95117188 255.08105469 C146.87924626 262.3300983 159.82077913 269.55399545 172.78076172 276.74584961 C181.33875906 281.49694582 189.88287453 286.27234196 198.41796875 291.06445312 C203.97314396 294.18085701 209.53816379 297.27813697 215.1171875 300.3515625 C216.33922858 301.02597667 217.56123402 301.70045542 218.78320312 302.375 C221.10255312 303.65528871 223.42442163 304.93056767 225.74804688 306.203125 C230.51346599 308.83352048 235.26478484 311.49426934 239.8984375 314.3515625 C240.57455078 314.7640625 241.25066406 315.1765625 241.94726562 315.6015625 C246.35653322 319.62058973 248.05791219 323.57741835 248.38476562 329.41308594 C248.41094361 331.3455312 248.41436353 333.27838056 248.3984375 335.2109375 C248.4022644 336.23713196 248.40609131 337.26332642 248.41003418 338.32061768 C248.41274542 340.47889188 248.40543969 342.63719939 248.38867188 344.79541016 C248.36716367 348.10523023 248.38854623 351.41290129 248.4140625 354.72265625 C248.41142081 356.82292146 248.40629912 358.92318534 248.3984375 361.0234375 C248.40653442 362.01406189 248.41463135 363.00468628 248.42297363 364.02532959 C248.40406067 365.40256195 248.40406067 365.40256195 248.38476562 366.80761719 C248.38158325 367.61479187 248.37840088 368.42196655 248.37512207 369.25360107 C247.8671875 371.3515625 247.8671875 371.3515625 246.11701965 373.14176941 C240.75476293 376.0251939 233.83720841 373.44719731 228.29418945 371.87475586 C226.22829797 371.23993865 224.165542 370.59485764 222.10546875 369.94140625 C220.95933105 369.58667236 219.81319336 369.23193848 218.63232422 368.86645508 C216.13212246 368.09151055 213.6332372 367.3132855 211.13589478 366.52926636 C207.08673682 365.25837379 203.03343817 364.00107185 198.97924805 362.74633789 C197.5566538 362.30596071 196.13406166 361.86557671 194.71147156 361.42518616 C193.9939591 361.20309038 193.27644665 360.98099461 192.53719139 360.75216866 C190.30863021 360.06185385 188.08045905 359.3702925 185.85237122 358.67845154 C174.67098599 355.2081815 163.47615965 351.78353294 152.2734375 348.3828125 C151.44963404 348.13270983 150.62583057 347.88260715 149.77706337 347.62492561 C142.23306569 345.33510839 134.6880272 343.04872898 127.14266968 340.76339722 C122.14824483 339.25065323 117.1540852 337.73703649 112.16015625 336.22265625 C111.34631659 335.97591597 110.53247692 335.72917568 109.69397545 335.47495842 C98.84391 332.18405407 88.00612712 328.85584256 77.17962456 325.48825264 C73.05278554 324.20570589 68.92409125 322.92913879 64.79550648 321.65222454 C61.60791404 320.66544721 58.42261247 319.67231472 55.23965454 318.67062378 C51.78811265 317.5844124 48.33219848 316.51335694 44.875 315.4453125 C43.88192337 315.12784561 42.88884674 314.81037872 41.86567688 314.48329163 C35.97437962 312.68257236 31.02891358 312.0390169 24.8671875 312.3515625 C23.58989407 317.27458136 23.70481634 322.15101391 23.69018555 327.19970703 C23.68361435 328.18738571 23.67704315 329.17506439 23.67027283 330.19267273 C23.65058703 333.45657433 23.63888678 336.72042998 23.62890625 339.984375 C23.62483072 341.1024139 23.6207552 342.2204528 23.61655617 343.37237167 C23.59571406 349.29186568 23.58140511 355.21133664 23.57202148 361.13085938 C23.56096998 367.22693176 23.52657882 373.32263787 23.48684978 379.41858101 C23.4606308 384.12168021 23.45232487 388.82469288 23.44874001 393.52785873 C23.44388659 395.77399032 23.43230839 398.02011837 23.41370201 400.26617813 C23.38920189 403.42009266 23.39029581 406.57306908 23.3972168 409.72705078 C23.38440674 410.64277359 23.37159668 411.5584964 23.35839844 412.50196838 C23.41962962 420.2138563 24.9677579 428.75688467 30.49609375 434.515625 C31.46417969 435.32773437 32.43226563 436.13984375 33.4296875 436.9765625 C33.9570752 437.429104 34.48446289 437.88164551 35.02783203 438.34790039 C36.62270579 439.7063817 38.24026402 441.03173913 39.8671875 442.3515625 C40.77082031 443.10050781 41.67445313 443.84945313 42.60546875 444.62109375 C44.37340015 446.07472623 46.14825585 447.5199752 47.9296875 448.95703125 C51.40782309 451.79226678 54.83091194 454.6864806 58.2421875 457.6015625 C58.82532715 458.09712646 59.4084668 458.59269043 60.00927734 459.10327148 C66.46716194 464.63687251 72.14718227 469.64814277 73.8671875 478.3515625 C74.11995555 482.82747196 74.09842323 487.30674849 74.1171875 491.7890625 C74.148125 493.63081055 74.148125 493.63081055 74.1796875 495.50976562 C74.18484375 496.69376953 74.19 497.87777344 74.1953125 499.09765625 C74.2046582 500.17716553 74.21400391 501.2566748 74.22363281 502.36889648 C73.78477473 506.04117678 72.50080889 508.71794111 69.8671875 511.3515625 C62.22750949 511.94242581 55.49634089 510.30007386 48.1224041 508.38842773 C46.00899233 507.84073282 43.89255102 507.30651292 41.7749176 506.77539062 C37.28180689 505.64591708 32.79307921 504.49962156 28.3046875 503.3515625 C23.09474962 502.02008437 17.8831572 500.69573814 12.66758919 499.38647461 C10.59396683 498.86247539 8.52351722 498.32708365 6.45298767 497.79101562 C-5.52571405 494.7736564 -12.76394608 495.21371435 -24.74130058 498.31469727 C-26.85509645 498.86157231 -28.97168566 499.3961321 -31.08937073 499.92773438 C-36.34623462 501.24985155 -41.59811156 502.59132087 -46.84960938 503.93457031 C-51.29688275 505.07158939 -55.74617646 506.19994211 -60.19859505 507.31665039 C-62.27068561 507.84001448 -64.33929632 508.37579407 -66.4080658 508.91210938 C-73.11243979 510.59672313 -79.21277137 512.0989467 -86.1328125 511.3515625 C-88.55807115 509.41162108 -89.12396491 508.37810528 -90.1328125 505.3515625 C-90.39565682 500.96007108 -90.36432169 496.56256443 -90.3828125 492.1640625 C-90.41375 490.35325195 -90.41375 490.35325195 -90.4453125 488.50585938 C-90.48653071 479.08234596 -89.25751137 471.85431862 -83.1328125 464.3515625 C-80.09789375 461.67590091 -76.93427213 459.17774139 -73.76269531 456.66699219 C-70.21485211 453.80363401 -66.79329552 450.78874153 -63.34643555 447.80541992 C-60.5922382 445.43064086 -57.82780254 443.08495534 -54.97265625 440.83203125 C-47.5927311 435.0015924 -41.9659196 429.97454153 -40.1328125 420.3515625 C-39.86338268 416.95876093 -39.86933802 413.58320835 -39.88989258 410.18115234 C-39.88704506 408.68473961 -39.88704506 408.68473961 -39.88414001 407.15809631 C-39.88044958 403.87614972 -39.89111114 400.59442677 -39.90234375 397.3125 C-39.90353655 395.02519761 -39.9039885 392.73789473 -39.9037323 390.45059204 C-39.90529413 385.66429565 -39.91356171 380.87807438 -39.92700195 376.09179688 C-39.94401047 369.95722119 -39.94781554 363.82272783 -39.94705677 357.68813133 C-39.94732867 352.96812149 -39.95281274 348.24812963 -39.96005821 343.52812576 C-39.9632394 341.26589723 -39.965211 339.00366666 -39.96595192 336.741436 C-39.9681202 333.58198319 -39.97687458 330.42261765 -39.98754883 327.26318359 C-39.98709564 326.32903122 -39.98664246 325.39487885 -39.98617554 324.43241882 C-40.00669421 320.27856291 -40.07573461 316.40080856 -41.1328125 312.3515625 C-49.57066184 311.73698345 -56.66368388 314.00283112 -64.640625 316.5390625 C-66.09192401 316.98997426 -67.54359536 317.43968905 -68.99560547 317.88830566 C-72.11575262 318.85480815 -75.23335467 319.82898801 -78.34918213 320.80932617 C-83.32894845 322.37587393 -88.31403484 323.92496127 -93.30029297 325.47070312 C-95.01920593 326.00375074 -96.73810843 326.53683208 -98.45700073 327.06994629 C-99.31783138 327.33692825 -100.17866203 327.60391022 -101.06557846 327.87898254 C-103.7178834 328.70231903 -106.36964889 329.52737174 -109.02127075 330.35290527 C-121.31561759 334.17911584 -133.62414162 337.95641043 -145.9453125 341.6953125 C-146.79266842 341.95246033 -147.64002434 342.20960815 -148.51305771 342.47454834 C-154.42738879 344.26882608 -160.34253313 346.06041402 -166.2578125 347.8515625 C-172.82327259 349.83997255 -179.38842976 351.82937871 -185.953125 353.8203125 C-186.73725895 354.05806396 -187.5213929 354.29581543 -188.32928848 354.54077148 C-198.81478799 357.72114543 -209.28783292 360.93904807 -219.75 364.1953125 C-222.06882396 364.91478993 -224.38767067 365.63419401 -226.70654297 366.35351562 C-230.84706564 367.63830578 -234.98345326 368.93533457 -239.11767578 370.24023438 C-240.9142411 370.79865 -242.71094359 371.35662454 -244.5078125 371.9140625 C-245.29235809 372.1658728 -246.07690369 372.41768311 -246.88522339 372.67712402 C-251.40406038 374.06507617 -255.3542891 374.85731863 -260.1328125 374.3515625 C-262.30015564 373.11332703 -262.30015564 373.11332703 -264.1328125 371.3515625 C-264.6474762 369.2603302 -264.6474762 369.2603302 -264.66625977 366.82348633 C-264.6820961 365.90855911 -264.69793243 364.9936319 -264.71424866 364.05097961 C-264.70680885 362.56974861 -264.70680885 362.56974861 -264.69921875 361.05859375 C-264.70541733 360.03859787 -264.71161591 359.01860199 -264.71800232 357.96769714 C-264.72511109 355.80651809 -264.72190814 353.6452844 -264.70922852 351.48413086 C-264.6954357 348.19345615 -264.72933164 344.90566554 -264.76757812 341.61523438 C-264.76853005 339.51302014 -264.76666658 337.41080238 -264.76171875 335.30859375 C-264.77497696 334.33122757 -264.78823517 333.35386139 -264.80189514 332.34687805 C-264.71359452 325.78982052 -263.43191496 321.38720284 -259.1328125 316.3515625 C-257.06591797 314.57983398 -257.06591797 314.57983398 -255 313.47265625 C-254.20819336 313.03453613 -253.41638672 312.59641602 -252.60058594 312.14501953 C-251.7449707 311.69755371 -250.88935547 311.25008789 -250.0078125 310.7890625 C-249.09547852 310.29003418 -248.18314453 309.79100586 -247.24316406 309.27685547 C-245.2604491 308.19317056 -243.27327469 307.11761363 -241.28222656 306.04931641 C-236.92381767 303.69982994 -232.60330114 301.28426496 -228.27978516 298.87133789 C-224.8436688 296.95472879 -221.40285462 295.04679448 -217.9609375 293.140625 C-211.50750577 289.56329824 -205.06813208 285.96134586 -198.6328125 282.3515625 C-188.84220887 276.86120025 -179.03378007 271.40358684 -169.21875 265.95703125 C-160.65092151 261.20040923 -152.09842861 256.4169322 -143.55126953 251.62329102 C-135.88164864 247.32431439 -128.19694006 243.05303324 -120.5078125 238.7890625 C-111.26630963 233.66308084 -102.05175659 228.49248659 -92.85961914 223.27856445 C-87.62597833 220.31397191 -82.38111107 217.37066087 -77.12109375 214.453125 C-76.52372406 214.12177551 -75.92635437 213.79042603 -75.31088257 213.44903564 C-72.4142933 211.84319485 -69.51643014 210.23972077 -66.6171875 208.63867188 C-49.12459909 200.42492962 -49.12459909 200.42492962 -37.78711128 185.99072075 C-36.3264895 180.09920433 -36.44759893 173.94073601 -36.27319336 167.89868164 C-36.2180702 166.33572734 -36.16172734 164.77281566 -36.10426331 163.20994568 C-35.98351682 159.85666632 -35.87122858 156.50325033 -35.76557732 153.14946175 C-35.59816837 147.84044886 -35.41108389 142.53223826 -35.22132874 137.22398376 C-34.88938402 127.86869232 -34.57382879 118.51290275 -34.26202393 109.15692139 C-33.79270606 95.07689896 -33.31130933 80.99730181 -32.81317621 66.9182691 C-32.62731414 61.64737529 -32.4503155 56.37628165 -32.2804507 51.10484898 C-32.17299579 47.8188513 -32.05863858 44.53311865 -31.94255638 41.24741554 C-31.890424 39.7306471 -31.84116966 38.2137764 -31.79510117 36.69681168 C-31.08268809 13.37781035 -31.08268809 13.37781035 -22.35546875 4.5546875 C-15.9909128 -1.09671525 -8.33052428 -2.5327235 0 0 Z " fill="#FCFCFC" transform="translate(264.1328125,0.6484375)"/>
<path d="M0 0 C0.66 0.33 1.32 0.66 2 1 C-0.31 3.31 -2.62 5.62 -5 8 C-5 5 -5 5 -2.5 2.3125 C-1.675 1.549375 -0.85 0.78625 0 0 Z " fill="#B3B3B3" transform="translate(8,315)"/>
</svg>
