<?xml version="1.0" encoding="UTF-8"?>
<svg version="1.1" xmlns="http://www.w3.org/2000/svg" width="445" height="488">
<path d="M0 0 C7.16495464 5.97079553 11.12569969 13.45347306 13.9375 22.21875 C14.17597656 22.90710938 14.41445312 23.59546875 14.66015625 24.3046875 C20.13956925 40.95025565 20.75290992 58.24592097 21.8125 75.59375 C21.97976369 78.22028068 22.1480683 80.84674526 22.31738281 83.47314453 C22.57275779 87.4351128 22.82754536 91.39710461 23.07867432 95.35934448 C23.58959668 103.39909537 24.13803392 111.43489195 24.734375 119.46875 C24.80563599 120.43281769 24.87689697 121.39688538 24.95031738 122.39016724 C25.21654179 125.97943445 25.48380527 129.56859498 25.75927734 133.15716553 C26.49054855 142.70152367 26.98095402 152.13745972 26.8125 161.71875 C26.8125 168.74347947 32.86264294 175.35052485 36.8046875 180.87109375 C39.13678395 184.17867802 41.38603043 187.53523662 43.625 190.90625 C44.04797363 191.54240234 44.47094727 192.17855469 44.90673828 192.83398438 C46.63663065 195.43761899 48.36423886 198.04276536 50.09179688 200.64794922 C51.35183836 202.54723363 52.61308137 204.44571234 53.875 206.34375 C54.28621094 206.96290283 54.69742188 207.58205566 55.12109375 208.2199707 C57.89776611 212.3866216 60.74686451 216.49678146 63.625 220.59375 C66.68078421 224.96686875 69.41951489 229.35546742 71.83984375 234.109375 C72.72494173 235.89754076 72.72494173 235.89754076 74.8125 236.71875 C82.35671627 230.82655189 89.8619369 224.89949278 97.25390625 218.81640625 C99.65472655 216.84810014 102.07224538 214.90368255 104.5 212.96875 C108.18649402 210.03007094 111.84918708 207.06383693 115.50317383 204.08496094 C121.23477443 199.41270418 126.98461452 194.77050501 132.8125 190.21875 C141.64679826 183.3166775 150.33520506 176.23299462 158.98828125 169.10546875 C159.92027344 168.33847656 160.85226563 167.57148438 161.8125 166.78125 C162.6684375 166.07355469 163.524375 165.36585938 164.40625 164.63671875 C166.64962933 162.84857062 168.95262877 161.22257417 171.3125 159.59375 C175.13863288 156.80043827 176.32891982 154.16949054 177.8125 149.71875 C179.55156029 147.97968971 181.942078 148.54873978 184.3112793 148.51342773 C185.50041931 148.49349258 186.68955933 148.47355743 187.91473389 148.45301819 C189.22548889 148.43629562 190.5362439 148.41957306 191.88671875 148.40234375 C193.26141879 148.3816038 194.63611358 148.36051402 196.01080322 148.33909607 C199.7309703 148.28278335 203.4511983 148.23342796 207.17148972 148.18611908 C209.50131603 148.15623312 211.83111798 148.1248572 214.16091919 148.09307861 C252.98849131 147.56707275 291.79817401 147.4748986 330.625 148.15625 C331.79884247 148.1758075 332.97268494 148.19536499 334.18209839 148.21551514 C337.46138559 148.27198803 340.74043721 148.33567981 344.01953125 148.40234375 C345.0020285 148.41906631 345.98452576 148.43578888 346.99679565 148.45301819 C347.88577545 148.47295334 348.77475525 148.49288849 349.69067383 148.51342773 C350.46711746 148.52897202 351.2435611 148.5445163 352.04353333 148.56053162 C353.8125 148.71875 353.8125 148.71875 354.8125 149.71875 C354.91237909 152.11973584 354.9469229 154.49201269 354.93948364 156.89355469 C354.94104363 157.65324429 354.94260362 158.41293388 354.94421089 159.19564438 C354.9482238 161.76065721 354.94503013 164.32561165 354.94189453 166.890625 C354.94324844 168.72163935 354.94502832 170.55265343 354.94720459 172.38366699 C354.95178012 177.37112592 354.94998887 182.35856426 354.9468255 187.34602356 C354.94430252 192.5532741 354.94663927 197.76052283 354.94821167 202.96777344 C354.95003355 211.71419594 354.94762658 220.46061002 354.94287109 229.20703125 C354.93742844 239.3345749 354.93919108 249.46209841 354.9446975 259.58964157 C354.94922812 268.26816353 354.94987943 276.94667942 354.94725883 285.62520218 C354.94569577 290.81585266 354.94550307 296.00649367 354.94879532 301.19714355 C354.95167329 306.07586108 354.94969971 310.95455252 354.94390106 315.83326721 C354.94257306 317.62923642 354.94296825 319.42520779 354.94516373 321.22117615 C354.94787368 323.66212935 354.94449603 326.10299761 354.93948364 328.54394531 C354.94171436 329.26406673 354.94394509 329.98418816 354.94624341 330.72613144 C354.92664986 335.60460014 354.92664986 335.60460014 353.8125 336.71875 C352.46439956 336.82615904 351.11079288 336.86553949 349.75846863 336.87696838 C348.44610985 336.89165161 348.44610985 336.89165161 347.10723877 336.90663147 C346.13881042 336.91238693 345.17038208 336.9181424 344.17260742 336.92407227 C343.15739517 336.93397186 342.14218292 336.94387146 341.09620667 336.95407104 C337.70348495 336.98589965 334.31075019 337.01058012 330.91796875 337.03515625 C328.53941007 337.05576055 326.16085477 337.07675785 323.78230286 337.09812927 C318.76073154 337.14223948 313.73914797 337.18309922 308.7175293 337.22143555 C302.39174399 337.26975828 296.06602163 337.32349899 289.74029922 337.37939835 C267.58637574 337.57467649 245.43223959 337.75693563 223.27734375 337.76953125 C222.58385519 337.77040804 221.89036663 337.77128483 221.17586327 337.77218819 C186.70384802 337.80428829 186.70384802 337.80428829 178.8125 336.71875 C176.8125 334.71875 176.8125 334.71875 175.98828125 331.859375 C174.59084689 328.12669318 173.13810175 326.87631269 170 324.46875 C169.01128906 323.69789063 168.02257812 322.92703125 167.00390625 322.1328125 C165.94103172 321.32690024 164.87721799 320.52222523 163.8125 319.71875 C162.22580728 318.50666582 160.63912463 317.29456724 159.05371094 316.08081055 C157.96828889 315.25001999 156.88168129 314.42077625 155.79394531 313.59301758 C151.83953844 310.56546123 148.02800709 307.40027314 144.25 304.15625 C139.25756588 299.87542069 134.12276434 295.86396833 128.83203125 291.953125 C125.69801638 289.63403509 122.5915847 287.28139457 119.5 284.90625 C118.97011475 284.49930908 118.44022949 284.09236816 117.89428711 283.6730957 C112.87448651 279.79909473 107.93154448 275.82977157 103.01245117 271.82885742 C99.39595551 268.90694993 95.7215917 266.23727931 91.8125 263.71875 C96.4102996 271.04311689 96.4102996 271.04311689 101.22265625 278.2265625 C116.0816181 299.7727806 124.2015055 322.49842566 125.8125 348.71875 C121.30289124 349.08625632 121.30289124 349.08625632 119.14453125 347.46875 C118.64308594 346.89125 118.14164063 346.31375 117.625 345.71875 C114.83090715 342.69843957 111.93086065 340.12867972 108.6875 337.59375 C105.14907088 334.81203313 101.91761322 331.98729023 98.8125 328.71875 C93.71448228 323.38471294 88.3645898 318.63344803 82.61328125 314.01171875 C79.00974347 311.06154207 75.56978929 307.95291776 72.125 304.8203125 C65.63612993 298.92333261 58.95548636 293.23742133 52.32617188 287.49951172 C48.34090124 284.04902186 44.36876906 280.58477266 40.42578125 277.0859375 C38.61129537 275.5482376 36.71959761 274.13920553 34.8125 272.71875 C34.9541186 276.92723588 35.10160375 281.13549809 35.25 285.34375 C35.28931641 286.51421875 35.32863281 287.6846875 35.36914062 288.890625 C35.57969896 294.78625838 35.86457771 300.65762169 36.328125 306.5390625 C38.63383231 337.5956168 38.23069097 372.6548988 25.8125 401.71875 C24.93934405 404.64639055 24.08478671 407.56524449 23.3828125 410.5390625 C22.33915128 414.5278499 20.95305074 418.42065259 19.65234375 422.33203125 C18.08450046 428.54284663 18.08450046 428.54284663 19.80004883 434.54467773 C21.20660794 436.53091285 22.70011264 438.40482575 24.25 440.28125 C25.35628342 441.69133485 26.45910139 443.10414479 27.55859375 444.51953125 C28.1088623 445.22287598 28.65913086 445.9262207 29.22607422 446.65087891 C38.42102975 458.63630109 45.11580424 471.25023369 44.8125 486.71875 C40.85831196 486.3798196 39.03905135 485.25730902 36.3828125 482.3671875 C32.76993674 478.57456667 28.72339392 475.19842744 24.8125 471.71875 C24.10480469 471.08324219 23.39710937 470.44773437 22.66796875 469.79296875 C18.22746973 465.84293905 13.62135151 462.21028315 8.8125 458.71875 C8.5340625 459.33234375 8.255625 459.9459375 7.96875 460.578125 C6.16571716 463.91617229 4.19459947 465.02770026 0.8125 466.71875 C-3.55352855 467.5675002 -7.39600378 467.72121179 -11.3515625 465.5078125 C-14.63970374 462.84211775 -16.43874145 460.97095906 -17.1875 456.71875 C-17.64125 457.21375 -18.095 457.70875 -18.5625 458.21875 C-20.1875 459.71875 -20.1875 459.71875 -22.1875 459.71875 C-22.43628906 460.27046875 -22.68507813 460.8221875 -22.94140625 461.390625 C-24.42245873 464.15773246 -26.18716851 466.50045067 -28.125 468.96875 C-28.81464844 469.86078125 -29.50429688 470.7528125 -30.21484375 471.671875 C-31.19130859 472.68507813 -31.19130859 472.68507813 -32.1875 473.71875 C-33.1775 473.71875 -34.1675 473.71875 -35.1875 473.71875 C-35.21453381 471.78132659 -35.23391125 469.84379521 -35.25 467.90625 C-35.26160156 466.82730469 -35.27320313 465.74835938 -35.28515625 464.63671875 C-35.1875 461.71875 -35.1875 461.71875 -34.1875 458.71875 C-39.25573357 460.49610735 -44.32367318 462.27429964 -49.39135742 464.05322266 C-51.11068047 464.65663505 -52.83007972 465.25983034 -54.54956055 465.86279297 C-56.2199279 466.44856297 -57.89016659 467.03470001 -59.56027222 467.62121582 C-61.19308076 468.19430457 -62.8263179 468.76617375 -64.45999146 469.33679199 C-69.70608 471.17489489 -74.90626826 473.10622341 -80.06518555 475.17871094 C-82.50916744 475.80060073 -83.84155612 475.58587631 -86.1875 474.71875 C-88.55292392 472.35332608 -87.76236552 466.7803433 -87.9375 463.59375 C-88.00582031 462.6553125 -88.07414062 461.716875 -88.14453125 460.75 C-88.60741182 452.275725 -86.8911814 447.28685792 -81.3125 440.71875 C-80.52101563 439.7803125 -79.72953125 438.841875 -78.9140625 437.875 C-78.00678276 436.82155864 -77.0978249 435.76956103 -76.1875 434.71875 C-75.42324707 433.83509766 -75.42324707 433.83509766 -74.64355469 432.93359375 C-72.43063436 430.37786418 -70.21549689 427.82413165 -67.9934082 425.27636719 C-64.75822575 421.56089949 -61.59478738 417.80299985 -58.5 413.96875 C-55.50754153 410.27057463 -52.40749522 406.72068029 -49.1875 403.21875 C-36.0131953 388.87658314 -25.06454895 376.33346318 -25.21508789 355.99072266 C-25.43126409 352.18316876 -25.72458533 348.39237702 -26.0625 344.59375 C-26.26862191 342.02867736 -26.47436987 339.46357464 -26.6796875 336.8984375 C-26.77620605 335.78194824 -26.87272461 334.66545898 -26.97216797 333.51513672 C-27.1952605 330.61796913 -27.18820116 327.77554364 -27.15234375 324.87109375 C-27.14332031 323.81019531 -27.13429687 322.74929688 -27.125 321.65625 C-27.11339844 320.59277344 -27.10179687 319.52929688 -27.08984375 318.43359375 C-26.99841364 315.75127964 -26.99841364 315.75127964 -28.1875 313.71875 C-28.23467297 311.99804233 -28.22479162 310.27563767 -28.1875 308.5546875 C-28.11438275 299.79889626 -28.83964903 291.11024847 -29.4765625 282.3828125 C-30.07263585 273.79935631 -30.30783666 265.3211495 -30.1875 256.71875 C-34.14714571 257.60051534 -37.40951507 259.33393798 -40.9375 261.28125 C-46.26547712 264.17501655 -51.62621251 266.97150531 -57.0625 269.65625 C-63.61566301 272.89600689 -70.08383654 276.2779694 -76.51708984 279.74975586 C-85.7849508 284.71875 -85.7849508 284.71875 -90.1875 284.71875 C-91.08512459 268.60140184 -88.58267847 255.22298147 -79.1875 241.71875 C-78.52878906 240.75066406 -77.87007812 239.78257812 -77.19140625 238.78515625 C-75.2961598 236.0250558 -73.38268058 233.27948881 -71.45996094 230.53857422 C-69.16478272 227.25609946 -66.89467697 223.95638774 -64.625 220.65625 C-63.92177612 219.634104 -63.92177612 219.634104 -63.2043457 218.59130859 C-59.8568317 213.71612902 -56.57024136 208.80288191 -53.30078125 203.875 C-50.68645474 199.97042363 -48.03530489 196.09209798 -45.375 192.21875 C-44.90642578 191.53554687 -44.43785156 190.85234375 -43.95507812 190.1484375 C-43.50970703 189.50132812 -43.06433594 188.85421875 -42.60546875 188.1875 C-42.21125732 187.61451172 -41.8170459 187.04152344 -41.41088867 186.45117188 C-40.1875 184.71875 -40.1875 184.71875 -38.5534668 182.83935547 C-33.31765802 174.71098459 -37.90497119 155.47783591 -38.5625 146.09375 C-38.70068334 144.07367131 -38.83853894 142.05357018 -38.97607422 140.03344727 C-39.78739185 128.17871756 -40.65379253 116.32878722 -41.55371094 104.48046875 C-42.049776 97.85491308 -42.47380813 91.22925722 -42.8125 84.59375 C-42.87268311 83.42960571 -42.87268311 83.42960571 -42.93408203 82.24194336 C-43.11127905 78.49731703 -43.1976064 74.77242416 -43.171875 71.0234375 C-43.15493852 67.62214971 -43.39256249 64.34778205 -43.8125 60.96875 C-44.79372292 49.80556176 -42.55653488 39.60838192 -36.5625 30.15625 C-36.10875 29.681875 -35.655 29.2075 -35.1875 28.71875 C-34.5275 28.71875 -33.8675 28.71875 -33.1875 28.71875 C-30.19124621 34.1946621 -28.33704737 39.32242639 -26.8984375 45.3984375 C-26.33539918 47.88347302 -26.33539918 47.88347302 -24.1875 49.71875 C-21.58469432 49.39833603 -21.58469432 49.39833603 -19.1875 48.71875 C-18.5697607 41.76918292 -20.31046084 34.44106482 -24.63671875 28.84375 C-25.10722656 28.3075 -25.57773438 27.77125 -26.0625 27.21875 C-27.79401272 24.99022901 -28.18250817 23.99454835 -28.234375 21.12890625 C-27.07370349 13.29437356 -24.06235247 7.0572265 -18.125 1.78125 C-12.98332565 -1.82886178 -5.6694079 -3.3206532 0 0 Z M-26.9375 75.09375 C-28.56819213 78.51820348 -28.33231216 80.9816106 -27.9375 84.6953125 C-27.35061143 86.83629706 -27.35061143 86.83629706 -25.48046875 88.0078125 C-22.62956754 88.89173758 -20.46420004 88.7695233 -17.5 88.46875 C-16.52675781 88.38109375 -15.55351563 88.2934375 -14.55078125 88.203125 C-13.77089844 88.04328125 -12.99101563 87.8834375 -12.1875 87.71875 C-10.42998058 84.20371116 -10.70645639 80.25920179 -11.86328125 76.5546875 C-13.07743968 74.48097607 -13.07743968 74.48097607 -15.6484375 73.96875 C-21.47884503 73.38010849 -21.47884503 73.38010849 -26.9375 75.09375 Z M-23.1875 127.71875 C-24.40320074 128.71521464 -24.40320074 128.71521464 -24.3203125 130.6796875 C-24.31773438 131.47632813 -24.31515625 132.27296875 -24.3125 133.09375 C-24.31507812 133.88523438 -24.31765625 134.67671875 -24.3203125 135.4921875 C-24.27367666 137.89218496 -24.27367666 137.89218496 -23.1875 140.71875 C-21.25068839 140.79982583 -19.3129066 140.85797475 -17.375 140.90625 C-16.29605469 140.94105469 -15.21710938 140.97585937 -14.10546875 141.01171875 C-11.22992078 140.93979412 -11.22992078 140.93979412 -9.28125 139.53125 C-7.75711689 137.0055437 -8.08742562 135.41927064 -8.5 132.53125 C-8.61988281 131.63019531 -8.73976563 130.72914063 -8.86328125 129.80078125 C-8.97027344 129.11371094 -9.07726562 128.42664063 -9.1875 127.71875 C-14.14996529 126.80727678 -18.23095232 126.72744046 -23.1875 127.71875 Z M314.8125 164.71875 C315.16397698 166.64204638 315.16397698 166.64204638 315.8125 168.71875 C315.89069678 170.11757903 315.92039636 171.51967874 315.91015625 172.9206543 C315.90685303 173.73797531 315.9035498 174.55529633 315.90014648 175.39738464 C315.89184814 176.2704274 315.8835498 177.14347015 315.875 178.04296875 C315.87121338 178.94497513 315.86742676 179.84698151 315.86352539 180.77632141 C315.85131933 183.65301301 315.83267856 186.52960393 315.8125 189.40625 C315.78602148 193.20181999 315.7659849 196.99734174 315.75 200.79296875 C315.74170166 201.6720842 315.73340332 202.55119965 315.72485352 203.45695496 C315.71631827 205.54440698 315.75906461 207.63196457 315.8125 209.71875 C316.82086062 210.95142348 316.82086062 210.95142348 318.87890625 210.81640625 C320.11447266 210.79900391 320.11447266 210.79900391 321.375 210.78125 C322.20128906 210.77222656 323.02757812 210.76320312 323.87890625 210.75390625 C324.51699219 210.74230469 325.15507812 210.73070312 325.8125 210.71875 C325.8378261 204.36499888 325.85535678 198.01126074 325.86743164 191.6574707 C325.87246472 189.49535638 325.87929169 187.33324547 325.88793945 185.17114258 C325.90004979 182.06590941 325.90573852 178.9607212 325.91015625 175.85546875 C325.91531754 174.88663254 325.92047882 173.91779633 325.92579651 172.91960144 C325.92587204 172.0188942 325.92594757 171.11818695 325.92602539 170.19018555 C325.928246 169.39742722 325.93046661 168.60466888 325.93275452 167.78788757 C325.89115777 165.52030302 325.89115777 165.52030302 324.8125 162.71875 C319.22585154 162.11453469 319.22585154 162.11453469 314.8125 164.71875 Z M294.8125 164.71875 C293.36702191 170.38020584 293.86709615 176.0933801 294.03125 181.88671875 C294.05344604 182.68153152 294.07564209 183.4763443 294.09851074 184.29524231 C294.16944957 186.832256 294.24096768 189.36925298 294.3125 191.90625 C294.36071525 193.62695206 294.40889279 195.34765517 294.45703125 197.06835938 C294.57508334 201.28516864 294.69365494 205.50196301 294.8125 209.71875 C298.1125 210.04875 301.4125 210.37875 304.8125 210.71875 C304.88650208 204.20428982 304.94103186 197.69007276 304.97729492 191.17529297 C304.99240753 188.95780172 305.01289826 186.74034047 305.03881836 184.52294922 C305.07509293 181.34074511 305.09220139 178.15893518 305.10546875 174.9765625 C305.12095261 173.98069122 305.13643646 172.98481995 305.15238953 171.95877075 C305.15261612 171.03796722 305.15284271 170.1171637 305.15307617 169.16845703 C305.15973801 168.3557132 305.16639984 167.54296936 305.17326355 166.70559692 C305.05421158 166.04993744 304.93515961 165.39427795 304.8125 164.71875 C300.99286143 162.17232429 298.52662494 161.99505838 294.8125 164.71875 Z M174.8125 165.71875 C174.8125 166.37875 174.8125 167.03875 174.8125 167.71875 C173.92763916 168.13846069 173.92763916 168.13846069 173.02490234 168.56665039 C170.98124276 169.63087789 169.25019415 170.768512 167.4140625 172.15234375 C166.77686279 172.63082764 166.13966309 173.10931152 165.4831543 173.60229492 C164.80808838 174.1151001 164.13302246 174.62790527 163.4375 175.15625 C162.73214111 175.68903564 162.02678223 176.22182129 161.30004883 176.77075195 C151.59529203 184.12461977 142.05536942 191.66579872 132.65625 199.40625 C129.40513579 202.0500132 126.11345716 204.637718 122.8125 207.21875 C115.74743861 212.74559792 108.8015818 218.40877462 101.8984375 224.13671875 C93.8009474 230.82642418 93.8009474 230.82642418 90.125 233.15625 C89.361875 233.671875 88.59875 234.1875 87.8125 234.71875 C87.8125 235.37875 87.8125 236.03875 87.8125 236.71875 C85.8325 237.70875 85.8325 237.70875 83.8125 238.71875 C87.68313927 241.29917618 90.82681309 240.95168155 95.30712891 240.86987305 C96.17402847 240.86201782 97.04092804 240.8541626 97.93409729 240.84606934 C100.80262566 240.81746598 103.67072823 240.7742194 106.5390625 240.73046875 C108.52777246 240.7068406 110.51649151 240.68396729 112.50521851 240.66181946 C116.67318314 240.61327035 120.84098231 240.55789824 125.00878906 240.49731445 C130.36354174 240.4196931 135.71834883 240.35536868 141.07332802 240.29565716 C145.17901999 240.24903983 149.28463302 240.19725331 153.39023972 240.14368629 C155.36548757 240.1181946 157.34075127 240.09390258 159.31602859 240.0708065 C162.06966963 240.0374712 164.82313661 239.99762768 167.57666016 239.95581055 C168.40056747 239.94691299 169.22447479 239.93801544 170.073349 239.92884827 C173.74540257 240.20973937 173.74540257 240.20973937 176.8125 238.71875 C176.96870555 237.30547053 177.06306173 235.8852041 177.12890625 234.46484375 C177.17080078 233.61083984 177.21269531 232.75683594 177.25585938 231.87695312 C177.29517578 230.97912109 177.33449219 230.08128906 177.375 229.15625 C177.41818359 228.25455078 177.46136719 227.35285156 177.50585938 226.42382812 C177.61228142 224.18896515 177.71429988 221.95398692 177.8125 219.71875 C178.75456299 219.72398682 179.69662598 219.72922363 180.66723633 219.73461914 C184.21395499 219.75181826 187.76062833 219.76427583 191.30737305 219.77368164 C192.83277086 219.77866292 194.35816401 219.78545038 195.88354492 219.79418945 C204.58520449 219.84273826 213.15637026 219.7589867 221.8125 218.71875 C221.8125 215.31438963 221.11569 214.52864721 219.375 211.71875 C218.23828125 209.34765625 218.23828125 209.34765625 217.8125 206.71875 C219.56886006 202.59581414 222.02171512 199.2072311 224.8125 195.71875 C224.1525 195.71875 223.4925 195.71875 222.8125 195.71875 C222.64427734 194.84476563 222.64427734 194.84476563 222.47265625 193.953125 C221.75249124 191.51564343 220.76870605 189.9936914 219.25 187.96875 C218.79496094 187.35515625 218.33992187 186.7415625 217.87109375 186.109375 C217.52175781 185.65046875 217.17242187 185.1915625 216.8125 184.71875 C217.4725 184.71875 218.1325 184.71875 218.8125 184.71875 C221.12842022 181.49760843 221.12842022 181.49760843 221.8125 177.71875 C211.48978287 176.81344546 201.28991297 176.5938577 190.9375 176.65625 C189.45963696 176.66128337 187.98177223 176.66584298 186.50390625 176.66992188 C182.94006805 176.68076282 179.37629553 176.69792221 175.8125 176.71875 C175.97621094 175.96207031 176.13992188 175.20539063 176.30859375 174.42578125 C176.85850064 171.47163027 176.88222594 168.71696539 176.8125 165.71875 C176.1525 165.71875 175.4925 165.71875 174.8125 165.71875 Z M-21.1875 181.71875 C-21.66472472 183.81717369 -21.66472472 183.81717369 -21.5625 186.15625 C-21.57023437 186.93871094 -21.57796875 187.72117188 -21.5859375 188.52734375 C-21.0933948 191.23632862 -20.41078988 192.12202363 -18.1875 193.71875 C-13.22588948 194.11887988 -9.70943161 193.9797158 -5.1875 191.71875 C-5.16051811 190.09384046 -5.14111243 188.46880367 -5.125 186.84375 C-5.11339844 185.93882812 -5.10179688 185.03390625 -5.08984375 184.1015625 C-5.02500743 181.7018915 -5.02500743 181.7018915 -6.1875 179.71875 C-8.12469378 179.66468878 -10.06231921 179.62592975 -12 179.59375 C-13.07894531 179.57054687 -14.15789062 179.54734375 -15.26953125 179.5234375 C-18.38152868 179.48851283 -18.38152868 179.48851283 -21.1875 181.71875 Z M-17.1875 233.71875 C-18.55253641 238.22337014 -17.86313646 241.36209521 -16.1875 245.71875 C-13.20536685 246.71279438 -11.74291462 246.77429146 -8.6875 246.46875 C-7.52734375 246.36820313 -7.52734375 246.36820313 -6.34375 246.265625 C-3.75318606 245.60859791 -2.77551725 244.85108763 -1.1875 242.71875 C-0.79099896 239.08415718 -0.77112373 236.62089858 -2.3125 233.28125 C-4.13980631 231.47757853 -4.13980631 231.47757853 -6.9375 231.34375 C-10.57247365 231.76317004 -13.70642718 232.6048067 -17.1875 233.71875 Z M116.1661377 246.18231201 C112.50465949 246.24390408 108.84314869 246.3034955 105.18164062 246.36328125 C98.05856164 246.47987004 90.93551966 246.5985865 83.8125 246.71875 C83.8125 247.37875 83.8125 248.03875 83.8125 248.71875 C85.1937079 250.04991866 85.1937079 250.04991866 87.0390625 251.37109375 C88.08163208 252.15637451 88.08163208 252.15637451 89.14526367 252.95751953 C89.90170166 253.51810059 90.65813965 254.07868164 91.4375 254.65625 C93.00970862 255.83905456 94.58131496 257.02266006 96.15234375 258.20703125 C96.94108887 258.7995166 97.72983398 259.39200195 98.54248047 260.00244141 C101.72662662 262.40989972 104.86763338 264.86950042 108 267.34375 C108.8504187 268.01386108 108.8504187 268.01386108 109.71801758 268.69750977 C111.98030214 270.48094248 114.24058309 272.26690587 116.50097656 274.05273438 C124.01307522 279.98447799 131.57292781 285.84715565 139.18554688 291.64941406 C145.46331598 296.43884535 151.6991585 301.28101017 157.92480469 306.13793945 C158.63668945 306.69312256 159.34857422 307.24830566 160.08203125 307.8203125 C160.70698486 308.30838379 161.33193848 308.79645508 161.97583008 309.29931641 C162.58193115 309.76772949 163.18803223 310.23614258 163.8125 310.71875 C164.85603638 311.55092041 164.85603638 311.55092041 165.9206543 312.39990234 C167.70158413 313.90937562 167.70158413 313.90937562 169.8125 313.71875 C169.8125 314.37875 169.8125 315.03875 169.8125 315.71875 C173.44573689 318.68110695 173.44573689 318.68110695 177.8125 319.71875 C177.83831717 312.85840683 177.85555754 305.99807661 177.86743164 299.13769531 C177.87239311 296.81444837 177.8791644 294.49120442 177.88793945 292.16796875 C177.94375728 276.98552028 177.66130501 261.8785797 176.8125 246.71875 C170.76174546 245.95926304 164.89456854 245.57560014 158.80078125 245.625 C157.47618645 245.63037781 157.47618645 245.63037781 156.12483215 245.63586426 C142.8043831 245.71177026 129.48474634 245.95688753 116.1661377 246.18231201 Z M-13.1875 285.71875 C-14.7510348 288.84581959 -14.58708487 292.29857443 -14.1875 295.71875 C-13.1975 297.20375 -13.1975 297.20375 -12.1875 298.71875 C-7.117534 299.14124717 -2.84703588 298.99169433 1.8125 296.71875 C3.7082928 293.30632295 2.57464813 289.39091824 1.8125 285.71875 C-0.66128124 284.48185938 -2.36665317 284.58564913 -5.125 284.59375 C-6.00027344 284.59117187 -6.87554687 284.58859375 -7.77734375 284.5859375 C-10.33209056 284.62052997 -10.33209056 284.62052997 -13.1875 285.71875 Z " fill="#FEFEFE" transform="translate(90.1875,1.28125)"/>
</svg>
