<?xml version="1.0" encoding="UTF-8"?>
<svg version="1.1" xmlns="http://www.w3.org/2000/svg" width="700" height="1000">
<path d="M0 0 C23.86635501 19.68363054 35.52124377 43.76686695 40.53735352 73.86352539 C40.86735352 115.11352539 41.19735352 156.36352539 41.53735352 198.86352539 C109.51735352 130.88352539 177.49735352 62.90352539 247.53735352 -7.13647461 C251.72828573 -3.544247 255.63949145 -0.15584225 259.47485352 3.73852539 C260.24700195 4.51969727 261.01915039 5.30086914 261.81469727 6.10571289 C262.66741211 6.97583008 262.66741211 6.97583008 263.53735352 7.86352539 C262.12549115 11.11393371 260.46525337 13.11453142 257.85822964 15.49824047 C257.08851721 16.20779831 256.31880479 16.91735615 255.52576774 17.64841574 C254.67626692 18.42115043 253.8267661 19.19388512 252.95152283 19.99003601 C251.08035934 21.7120906 249.20923191 23.43418436 247.33813477 25.15631104 C246.32222615 26.08769892 245.3061136 27.01886441 244.28981018 27.94982147 C238.77470738 33.00399632 233.28340116 38.08395743 227.79393005 43.16593933 C227.2102439 43.70610433 226.62655775 44.24626933 226.02518414 44.80280297 C216.77328576 53.36970126 207.5970849 62.0130264 198.47059631 70.71333313 C197.85010819 71.30479333 197.22962007 71.89625354 196.59032928 72.50563677 C190.16466515 78.63306194 183.748662 84.77050935 177.34088456 90.9166349 C174.04508991 94.07713037 170.74691464 97.23513062 167.44726562 100.39160156 C166.79072369 101.01973221 166.13418175 101.64786286 165.45774461 102.29502777 C156.24191148 111.10278149 146.91536808 119.77647319 137.48740394 128.35654272 C121.24874212 143.13553969 105.25547625 158.13668566 89.68969727 173.62524414 C88.785787 174.52346438 88.785787 174.52346438 87.86361593 175.43983048 C57.63469533 205.55373859 34.47377365 231.68532059 33.83802795 276.53877258 C33.98402925 291.71497881 35.34759278 306.9895018 38.22489357 321.8978138 C41.11263325 336.91803608 39.9324238 349.30969313 34.28735352 363.67602539 C33.98651855 364.46589844 33.68568359 365.25577148 33.37573242 366.06958008 C29.68399716 375.46288881 24.58729798 383.79693277 18.53735352 391.86352539 C20.01724046 395.29292524 21.94476596 397.51974586 24.57847023 400.15073776 C25.42891745 401.00516708 26.27936467 401.8595964 27.15558302 402.73991752 C28.10466042 403.68328897 29.05383017 404.62656753 30.00308228 405.56976318 C31.0075622 406.57511512 32.01160258 407.58090638 33.01524007 408.58709931 C35.77681972 411.35315747 38.54460778 414.11292991 41.31343126 416.87173438 C44.29726893 419.84694713 47.27533695 422.82792505 50.25410461 425.80821228 C55.41661196 430.97176908 60.5827729 436.13164705 65.75142288 441.28905487 C73.22444634 448.74583455 80.69195083 456.20812096 88.15811341 463.67176941 C100.27117869 475.78045584 112.38870497 487.88466781 124.5090332 499.98608398 C136.28383478 511.74253172 148.05653708 523.50107508 159.82641602 535.26245117 C160.55173049 535.9872402 161.27704497 536.71202923 162.02433868 537.45878157 C165.6629611 541.09479395 169.30154223 544.73084765 172.94010282 548.3669219 C203.13278574 578.53886637 233.33270746 608.70355735 263.53735352 638.86352539 C262.59161042 639.97581511 261.64458151 641.08701162 260.69702148 642.19775391 C260.16978485 642.81667007 259.64254822 643.43558624 259.09933472 644.07325745 C257.05196434 646.41985519 254.8806841 648.61630588 252.66235352 650.80102539 C251.88118164 651.57317383 251.10000977 652.34532227 250.29516602 653.14086914 C249.42504883 653.99358398 249.42504883 653.99358398 248.53735352 654.86352539 C245.11448059 653.38629915 242.89809205 651.46882709 240.27693176 648.83523273 C239.42845263 647.98765221 238.57997351 647.14007168 237.70578289 646.2668069 C236.31493843 644.86210801 236.31493843 644.86210801 234.89599609 643.42903137 C233.89762872 642.42795611 232.89881275 641.42732805 231.89958668 640.4271099 C229.15267656 637.67496166 226.4120363 634.91664232 223.6723237 632.15733159 C220.71756212 629.18367291 217.75696625 626.21583378 214.79696655 623.24739075 C209.66813368 618.10254176 204.54270157 612.95432514 199.41928101 607.80408669 C191.32607984 599.66901107 183.22312494 591.54368996 175.11865234 583.41984558 C172.34727427 580.64158761 169.57597237 577.86325366 166.80470276 575.0848875 C166.11215493 574.39056803 165.41960711 573.69624855 164.70607299 572.98088909 C156.82281234 565.07713234 148.94188635 557.17104928 141.06176758 549.26416016 C140.34135005 548.54130007 139.62093252 547.81843999 138.87868416 547.07367506 C127.19225428 535.34719894 115.51174431 523.61483877 103.83251393 511.88119284 C91.84975643 499.84308456 79.8574488 487.81454501 67.8570013 475.79407138 C60.45004661 468.37401407 53.05121886 460.94603103 45.66250873 453.50780525 C40.60344646 448.41612967 35.53545199 443.33346283 30.46021676 438.25790814 C27.52875766 435.32567936 24.60162799 432.38943105 21.68519211 429.44225311 C19.01879715 426.74790885 16.34128501 424.06517309 13.65420759 421.39145955 C12.68082198 420.41880329 11.71171829 419.44184042 10.74723876 418.46035228 C9.44226304 417.13357765 8.1204763 415.8233991 6.79777527 414.51429462 C6.06632388 413.77986049 5.33487249 413.04542636 4.58125591 412.28873664 C2.65733097 410.62244897 2.65733097 410.62244897 0.39705372 411.0511238 C-1.92086692 412.06369691 -3.70473832 413.38499098 -5.71264648 414.92602539 C-13.28129661 420.38537958 -25.86005015 428.86352539 -35.46264648 428.86352539 C-35.45005075 429.78929949 -35.43745501 430.71507359 -35.42447758 431.66890144 C-35.29102381 446.70001854 -35.90852419 461.71007927 -36.46250331 476.72779822 C-36.61008644 480.74826656 -36.7538662 484.7688713 -36.89814758 488.78945923 C-37.1805471 496.64250337 -37.46637949 504.49541888 -37.75340741 512.34829508 C-38.08836012 521.51602131 -38.41983037 530.68387251 -38.75117416 539.85172977 C-39.34301811 556.22408535 -39.93795435 572.59632709 -40.53466797 588.96850586 C-41.11209237 604.81152453 -41.68738238 620.65461877 -42.26025391 636.49780273 C-42.29553245 637.47344818 -42.33081099 638.44909363 -42.36715858 639.45430408 C-42.40237909 640.42835493 -42.43759959 641.40240578 -42.47388738 642.40597332 C-42.54482314 644.36772978 -42.61576 646.32948621 -42.68669796 648.2912426 C-42.73918968 649.74287801 -42.73918968 649.74287801 -42.79274183 651.22383939 C-43.34096766 666.38217494 -43.89123451 681.54043649 -44.44167186 696.69869187 C-44.64026692 702.16850811 -44.83854861 707.63833562 -45.03659361 713.10817181 C-45.35093124 721.78986022 -45.66615749 730.47151535 -45.9831826 739.15310608 C-46.12777103 743.11305598 -46.27195651 747.0730193 -46.41493607 751.03302765 C-46.46883491 752.5239926 -46.52275277 754.01495687 -46.57669067 755.50592041 C-46.61565332 756.58371382 -46.61565332 756.58371382 -46.65540309 757.68328084 C-46.82644532 762.38832866 -47.00834611 767.09284769 -47.19431877 771.79732895 C-47.36844777 776.20768986 -47.51241748 780.61652588 -47.61947823 785.02899551 C-47.67566991 786.8167908 -47.7320255 788.60458095 -47.78858948 790.3923645 C-47.79811109 791.15543596 -47.80763269 791.91850742 -47.81744283 792.70470226 C-48.04616034 798.94715689 -49.98867072 804.38954963 -54.46264648 808.86352539 C-54.77037891 810.88779403 -54.77037891 810.88779403 -54.72766113 813.24641418 C-54.7359343 814.16749466 -54.74420746 815.08857513 -54.75273132 816.03756714 C-54.75174942 817.0511026 -54.75076752 818.06463806 -54.74975586 819.10888672 C-54.7565889 820.17404007 -54.76342194 821.23919342 -54.77046204 822.33662415 C-54.78407862 824.65563142 -54.79311348 826.97466898 -54.798172 829.29371071 C-54.80643462 832.96249065 -54.82691612 836.63101848 -54.85070801 840.29972839 C-54.89903208 848.09179016 -54.93189572 855.88387706 -54.96264648 863.67602539 C-54.99828379 872.6930949 -55.04020106 881.7100421 -55.09858704 890.72699547 C-55.11867794 894.34371421 -55.12698081 897.9603397 -55.1348877 901.57710266 C-55.14786041 903.79473205 -55.16138076 906.01235832 -55.17553711 908.22998047 C-55.17455521 909.23744324 -55.1735733 910.24490601 -55.17256165 911.28289795 C-55.22986137 917.72086881 -55.53994276 921.80348569 -60.08764648 926.67602539 C-63.01883195 928.91542256 -65.66614978 929.66106749 -69.43139648 929.42211914 C-73.22847602 928.37792227 -76.04720819 925.91607929 -78.46264648 922.86352539 C-79.38797583 919.94389754 -79.58915772 917.29219342 -79.59394836 914.24012756 C-79.59996063 912.85438286 -79.59996063 912.85438286 -79.60609436 911.44064331 C-79.60556564 910.4342984 -79.60503693 909.42795349 -79.60449219 908.39111328 C-79.60970383 906.79294518 -79.60970383 906.79294518 -79.61502075 905.16249084 C-79.62237193 902.84895919 -79.62772072 900.53542051 -79.63131142 898.22187996 C-79.63847626 894.56139013 -79.65414206 890.90103439 -79.6726532 887.24058533 C-79.72512976 876.83309741 -79.77312573 866.42568387 -79.78857422 856.01806641 C-79.79864266 849.65261294 -79.82793578 843.28749809 -79.86989403 836.92217827 C-79.88222213 834.49530025 -79.887322 832.06837445 -79.8850956 829.64146614 C-79.8827487 826.2490522 -79.90486289 822.85761429 -79.93261719 819.46533203 C-79.92601578 818.46101135 -79.91941437 817.45669067 -79.91261292 816.42193604 C-79.98801977 810.81737357 -80.4094123 808.02916791 -84.46264648 803.86352539 C-86.14445563 800.35623387 -86.74183149 797.43687381 -86.88276672 793.56680298 C-86.94784518 791.96168791 -86.94784518 791.96168791 -87.01423836 790.32414627 C-87.05304556 789.13782986 -87.09185276 787.95151344 -87.13183594 786.72924805 C-87.18132826 785.43930309 -87.23082058 784.14935814 -87.28181267 782.82032394 C-87.42261791 779.14231322 -87.55184656 775.46396632 -87.67953277 771.78548002 C-87.82413416 767.67832624 -87.97934894 763.57157054 -88.13313293 759.4647522 C-88.42000296 751.76312896 -88.69960901 744.06126275 -88.97589111 736.35925293 C-89.44280404 723.35282166 -89.92371688 710.34691802 -90.40586819 697.34104465 C-91.49003731 668.09567553 -92.55927543 638.84977717 -93.62023735 609.60355759 C-93.70547961 607.25387133 -93.79072284 604.90418512 -93.87596892 602.554499 C-93.93296045 600.98359014 -93.9899481 599.41268113 -94.04693188 597.84177199 C-94.50987824 585.0809863 -94.9758812 572.32031409 -95.44310709 559.55968444 C-95.92930904 546.27963483 -96.41304953 532.99949741 -96.89432794 519.71926844 C-97.16209709 512.33204724 -97.43086077 504.94486552 -97.70238304 497.55778122 C-97.95576272 490.66394925 -98.20575474 483.77000141 -98.45351219 476.87596512 C-98.54429098 474.36460546 -98.63616486 471.85328509 -98.72926712 469.3420105 C-99.22905537 455.84254601 -99.59964339 442.37284256 -99.46264648 428.86352539 C-100.88653435 428.63882065 -100.88653435 428.63882065 -102.33918762 428.40957642 C-104.97961678 427.94796987 -106.80406276 427.4447042 -109.16186523 426.26196289 C-109.80857178 425.9398584 -110.45527832 425.61775391 -111.12158203 425.28588867 C-111.7910083 424.94025879 -112.46043457 424.59462891 -113.15014648 424.23852539 C-113.84986572 423.88387207 -114.54958496 423.52921875 -115.27050781 423.16381836 C-120.42643127 420.50753955 -125.32558728 417.56263635 -130.13061523 414.30883789 C-132.80097738 412.56053589 -132.80097738 412.56053589 -137.46264648 410.86352539 C-217.98264648 491.38352539 -298.50264648 571.90352539 -381.46264648 654.86352539 C-384.75439399 653.21765164 -386.25969806 652.31053279 -388.69702148 649.82446289 C-389.2706543 649.24438477 -389.84428711 648.66430664 -390.43530273 648.06665039 C-391.31508789 647.16172852 -391.31508789 647.16172852 -392.21264648 646.23852539 C-392.81463867 645.62750977 -393.41663086 645.01649414 -394.03686523 644.38696289 C-395.51669954 642.88363915 -396.99029325 641.37417683 -398.46264648 639.86352539 C-393.51210525 633.89194256 -388.15920831 628.42230236 -382.66775513 622.94837952 C-381.67653625 621.95672396 -380.68553739 620.96484844 -379.69473827 619.97277349 C-376.98555725 617.26136634 -374.27328483 614.55307051 -371.56047821 611.8452915 C-368.63031486 608.91945958 -365.70305539 605.99072484 -362.7754364 603.06234741 C-357.70740452 597.993792 -352.63754963 592.92706605 -347.56644058 587.86158943 C-340.23453283 580.53781983 -332.90539849 573.21127993 -325.5769311 565.88406795 C-313.68597464 553.99529835 -301.79278821 542.10876215 -289.89819336 530.22363281 C-278.34591288 518.68053586 -266.79468652 507.13638573 -255.24487305 495.59082031 C-254.53255744 494.87876743 -253.82024184 494.16671456 -253.08634092 493.43308432 C-249.51275448 489.86080295 -245.93918873 486.28850089 -242.36563325 482.71618855 C-212.73450976 453.09542634 -183.09976459 423.47828959 -153.46264648 393.86352539 C-154.95788729 390.7921639 -156.65918428 387.93165216 -158.48364258 385.04272461 C-166.26187234 372.59560347 -172.02189056 359.4141857 -174.46264648 344.86352539 C-174.67023622 343.6601374 -174.87782595 342.4567494 -175.09170628 341.2168951 C-175.65288097 336.61612567 -174.88947167 332.67322756 -173.90550232 328.18226624 C-167.09191248 293.67182514 -162.48085643 251.47083565 -183.02297103 220.74231255 C-195.15585295 203.29508 -210.09491931 187.98740911 -225.12280273 173.04711914 C-225.7303373 172.44219574 -226.33787187 171.83727234 -226.96381658 171.21401793 C-242.73243338 155.5390951 -258.9814462 140.40434575 -275.40950429 125.42589343 C-284.94783582 116.72029446 -294.34799833 107.88213444 -303.66894531 98.94433594 C-304.33179561 98.30880889 -304.9946459 97.67328183 -305.67758257 97.01849639 C-309.00456381 93.82730811 -312.32939286 90.63388802 -315.65316212 87.43935478 C-342.93212607 61.22655541 -370.56390431 35.41495671 -398.46264648 9.86352539 C-397.06668163 6.95733404 -395.73200447 4.89230773 -393.42358398 2.62915039 C-392.84350586 2.05551758 -392.26342773 1.48188477 -391.66577148 0.89086914 C-391.06249023 0.3043457 -390.45920898 -0.28217773 -389.83764648 -0.88647461 C-389.22663086 -1.4884668 -388.61561523 -2.09045898 -387.98608398 -2.71069336 C-386.48276025 -4.19052766 -384.97329793 -5.66412137 -383.46264648 -7.13647461 C-378.04162301 -2.61350403 -373.00914316 2.17762797 -368.02809143 7.17782593 C-367.20539998 7.99966295 -366.38270854 8.82149997 -365.53508705 9.66824114 C-363.26877488 11.93319774 -361.00470479 14.20036734 -358.74158919 16.46851707 C-356.29429277 18.92015174 -353.84408655 21.36887539 -351.39424133 23.81796265 C-347.15564193 28.05603895 -342.91887015 32.29593517 -338.68335152 36.5370903 C-332.55957931 42.66900651 -326.43303156 48.79814345 -320.30581354 54.92661627 C-310.36370104 64.87091474 -300.42382148 74.81744203 -290.48535156 84.76538086 C-280.83385738 94.42606094 -271.18130834 104.08568506 -261.52734375 113.74389648 C-260.9317837 114.33971926 -260.33622365 114.93554203 -259.72261632 115.54942004 C-256.73471374 118.53862771 -253.74679046 121.52781469 -250.75885689 124.51699138 C-225.99024391 149.2959628 -201.22525705 174.07855557 -176.46264648 198.86352539 C-176.46117992 198.23774471 -176.45971336 197.61196404 -176.45820236 196.96722031 C-176.42093506 181.64661418 -176.36166086 166.32625841 -176.27874374 151.0058403 C-176.23915844 143.59658255 -176.20666301 136.18742785 -176.19165039 128.77807617 C-176.17852624 122.31006978 -176.15129304 115.84229211 -176.10803342 109.37441468 C-176.08565661 105.95874884 -176.06972117 102.54336251 -176.07076263 99.12761688 C-176.04894565 64.24644808 -169.03057327 33.95014567 -144.15014648 8.17602539 C-104.968724 -29.59638328 -43.13486435 -34.27308075 0 0 Z " fill="#FEFEFE" transform="translate(418.462646484375,23.136474609375)"/>
<path d="M0 0 C2.375 0.875 2.375 0.875 4.375 2.875 C4.62947559 5.51779079 4.62947559 5.51779079 4.63569641 8.9417572 C4.64278122 10.23595078 4.64986603 11.53014435 4.65716553 12.86355591 C4.65487149 14.30609166 4.65236176 15.74862707 4.6496582 17.19116211 C4.65400332 18.70381421 4.6591858 20.21646411 4.66514587 21.72911072 C4.67856891 25.84478962 4.67911088 29.96037688 4.67658257 34.07607341 C4.67551506 37.50813687 4.68039059 40.94018162 4.685188 44.37224108 C4.69629468 52.46716901 4.69671412 60.56205055 4.69067383 68.65698242 C4.68463232 77.01626602 4.69694685 85.37538136 4.7182439 93.73463625 C4.73584008 100.90410181 4.74186439 108.07351372 4.73860615 115.24300009 C4.73678993 119.52830263 4.73946309 123.81348518 4.75332069 128.09876823 C4.76586223 132.12808166 4.76399006 136.15713221 4.75090981 140.18644142 C4.74853639 141.66712405 4.75130597 143.14782496 4.75953293 144.62848663 C4.76993657 146.64605358 4.76013289 148.66369489 4.7492218 150.68125916 C4.74938954 151.8115451 4.74955729 152.94183104 4.74973011 154.10636806 C4.375 156.875 4.375 156.875 3.00786114 158.73476505 C0.64114385 160.38745535 -0.80951776 160.36770939 -3.625 159.875 C-6.7311593 156.72039981 -6.99337282 154.34115991 -6.96557617 150.00488281 C-6.96534958 148.82396057 -6.96512299 147.64303833 -6.96488953 146.42633057 C-6.94940567 145.15642273 -6.93392181 143.88651489 -6.91796875 142.578125 C-6.91372391 141.27421814 -6.90947906 139.97031128 -6.90510559 138.62689209 C-6.89367549 135.16781228 -6.86422477 131.70911302 -6.83099365 128.25018311 C-6.8002528 124.71762235 -6.78659172 121.18499984 -6.77148438 117.65234375 C-6.73935282 110.72640661 -6.68817904 103.8007216 -6.625 96.875 C-7.23566818 96.67289413 -7.84633636 96.47078827 -8.47550964 96.26255798 C-9.28047379 95.99536453 -10.08543793 95.72817108 -10.91479492 95.45288086 C-11.7110881 95.18889999 -12.50738129 94.92491913 -13.32780457 94.65293884 C-16.23585921 93.66813423 -19.09081584 92.58748499 -21.9375 91.4375 C-22.92363281 91.04691406 -23.90976562 90.65632812 -24.92578125 90.25390625 C-28.88962656 88.22896067 -31.17289489 86.26145567 -32.5625 82 C-32.64117576 78.06621196 -31.79997577 76.13746365 -29.625 72.875 C-25.37240402 69.90059449 -20.60113477 68.11017901 -15.8125 66.1875 C-15.02423828 65.86716797 -14.23597656 65.54683594 -13.42382812 65.21679688 C-11.49237835 64.43251121 -9.55889081 63.65324713 -7.625 62.875 C-7.62135437 62.14472595 -7.61770874 61.4144519 -7.61395264 60.66204834 C-7.57606733 53.77589183 -7.51920864 46.89012443 -7.44109726 40.00431442 C-7.40160745 36.46428335 -7.36942683 32.92450156 -7.35400391 29.38427734 C-7.33594629 25.31307057 -7.28600275 21.24279546 -7.234375 17.171875 C-7.23314636 15.90196716 -7.23191772 14.63205933 -7.23065186 13.32366943 C-7.20107391 11.55228607 -7.20107391 11.55228607 -7.17089844 9.74511719 C-7.16201599 8.70587097 -7.15313354 7.66662476 -7.14398193 6.59588623 C-6.34982096 2.43230841 -4.40418302 -0.209723 0 0 Z " fill="#FCFCFC" transform="translate(324.625,840.125)"/>
</svg>
