<?xml version="1.0" encoding="UTF-8"?>
<svg version="1.1" xmlns="http://www.w3.org/2000/svg" width="761" height="1069">
<path d="M0 0 C3.6686522 1.22288407 3.98551242 2.16409043 5.875 5.4375 C6.58269531 6.64212891 6.58269531 6.64212891 7.3046875 7.87109375 C28.5808235 47.13880098 34.29719211 94.34834544 40 138 C40.10550171 138.80443542 40.21100342 139.60887085 40.31970215 140.43768311 C42.88297047 160.12985399 44.56552318 179.89357579 46.125 199.6875 C46.20567719 200.69662445 46.28635437 201.7057489 46.36947632 202.74545288 C46.88319557 209.24181259 47.3410802 215.74034554 47.75823975 222.24362183 C47.92164251 224.78251135 48.0909468 227.32102689 48.26568604 229.85916138 C50.74538922 266.31230123 50.43702018 302.88646773 50.58943713 339.40491742 C50.62770469 348.47573841 50.67734026 357.5464874 50.72740483 366.61724961 C50.87257434 393.10446689 51.01487445 419.59136152 50.99876833 446.07903731 C50.99266047 456.99622503 51.03310737 467.91156556 51.1484375 478.828125 C51.15697376 479.64329338 51.16551003 480.45846176 51.17430496 481.29833221 C51.21961891 485.56301277 51.2675042 489.8276557 51.31738281 494.09228516 C51.35762635 497.58086015 51.39203672 501.06942619 51.421875 504.55810547 C51.45866268 508.8550313 51.50489177 513.15175584 51.55806351 517.44850922 C51.5765025 519.06399879 51.59164858 520.67952963 51.60334396 522.29508209 C51.62016898 524.52538741 51.64915745 526.75521954 51.68115234 528.98535156 C51.70113785 530.87909515 51.70113785 530.87909515 51.7215271 532.81109619 C51.9858251 535.83767756 52.30424625 537.51763471 54 540 C58.12002461 542.8447789 61.28207847 543.47938302 66.1015625 542.6484375 C69.27627103 541.56407203 70.9694455 539.58434209 73 537 C73.9096923 534.2709231 74.1245165 532.70199397 74.12304783 529.89830494 C74.12503888 529.05980025 74.12702993 528.22129556 74.12908131 527.35738164 C74.12471205 525.97558446 74.12471205 525.97558446 74.12025452 524.56587219 C74.12110894 523.5873399 74.12196337 522.60880762 74.12284368 521.60062283 C74.12449667 518.30705376 74.11898003 515.01353512 74.11352539 511.7199707 C74.11324345 509.36487835 74.11340138 507.00978591 74.1139679 504.6546936 C74.11425562 498.24804312 74.10836294 491.84141125 74.10139394 485.4347651 C74.09531236 479.42168192 74.0947716 473.40859653 74.09374207 467.39551082 C74.09155267 455.4842921 74.08489562 443.57308023 74.07543945 431.66186523 C74.06626244 420.090251 74.05918302 408.51863862 74.05493164 396.94702148 C74.05466892 396.23391771 74.05440619 395.52081394 74.05413551 394.78610096 C74.05283048 391.20871985 74.05156677 387.63133872 74.05032361 384.05395758 C74.03995449 354.36930052 74.02226495 324.68465058 74 295 C75.28290028 295.95976715 76.56547031 296.91997575 77.84790039 297.88037109 C78.5621669 298.41503998 79.27643341 298.94970886 80.01234436 299.50057983 C99.02578892 313.84367912 108.99271954 334.20615006 112.50462079 357.41684079 C113.27820097 363.01227329 113.79496166 368.61809252 114.26791382 374.24594116 C114.37464487 375.50533705 114.48137593 376.76473294 114.59134126 378.06229234 C114.93821524 382.22317106 115.26610979 386.38541456 115.58740234 390.54833984 C115.64349756 391.27366983 115.69959278 391.99899981 115.75738785 392.74630949 C118.41124855 427.36185353 118.70156138 461.88459922 118.61594907 496.58505831 C118.59582597 505.2927901 118.60797778 514.00041051 118.62168162 522.70814423 C118.64558745 538.23171695 118.65029922 553.75522299 118.63964844 569.27880859 C118.63902461 570.19555592 118.63840079 571.11230326 118.63775806 572.05683081 C118.63648649 573.91296659 118.63521225 575.76910237 118.63393535 577.62523814 C118.63330297 578.54611415 118.63267059 579.46699015 118.63201904 580.41577148 C118.6313809 581.33780946 118.63074275 582.25984745 118.63008527 583.20982597 C118.62320957 593.56745518 118.6212871 603.92508354 118.62109375 614.28271484 C118.62107092 615.21586233 118.62104809 616.14900981 118.62102456 617.11043449 C118.62109379 632.66949218 118.63309959 648.22852477 118.65205324 663.78757036 C118.66296368 673.32041879 118.66227334 682.85313502 118.6461135 692.38597684 C118.63565072 698.87740287 118.63541537 705.36877538 118.64323165 711.86020501 C118.64731201 715.59644108 118.64641717 719.33250649 118.63229942 723.06872177 C118.61705795 727.11930588 118.62494798 731.16952294 118.63491821 735.22012329 C118.62666004 736.39330915 118.61840186 737.56649501 118.60989344 738.77523196 C118.64758766 745.22979321 119.06817081 751.13924536 122 757 C124.73271759 759.22430502 127.50873246 759.75062375 131 760 C134.59849732 759.35888841 137.18392342 757.89726145 139.67126495 755.16247439 C141.19444186 752.68355201 141.37778465 751.34826812 141.38476086 748.4629097 C141.39894567 747.09766423 141.39894567 747.09766423 141.41341704 745.70483804 C141.40856947 744.70873379 141.40372189 743.71262955 141.39872742 742.68634033 C141.40537424 741.62528257 141.41202107 740.56422481 141.41886932 739.47101378 C141.43756987 735.90408185 141.43488923 732.33748328 141.43237305 728.77050781 C141.44138587 726.21822127 141.4517119 723.66593907 141.46325684 721.11366272 C141.48517578 715.6128672 141.497931 710.11217101 141.50238609 704.61133575 C141.50884318 696.65807184 141.53177272 688.70492263 141.55872939 680.7517049 C141.60201652 667.84832069 141.63197226 654.94494131 141.65356445 642.04150391 C141.67456838 629.50664905 141.70183833 616.97183368 141.73754883 604.43701172 C141.73974765 603.66443076 141.74194648 602.8918498 141.74421193 602.09585729 C141.75528144 598.22006508 141.76647428 594.34427323 141.77772844 590.46848154 C141.87094081 558.31235394 141.94252612 526.15621203 142 494 C142.33 494.66 142.66 495.32 143 496 C143.59683594 496.28746094 144.19367187 496.57492187 144.80859375 496.87109375 C147.45203744 498.23286777 149.02340743 499.90144302 151.0625 502.0625 C154.22932109 505.30631026 157.44606919 508.24964761 161 511.0625 C168.40207811 516.98832096 175.15347131 523.60559466 182.02294922 530.13183594 C188.21385295 535.98177362 194.56806869 541.65034319 200.9921875 547.2421875 C206.11223133 551.72471614 211.16725823 556.28104438 216.140625 560.92578125 C221.20909021 565.65478631 226.26876107 570.29307029 231.6875 574.625 C236.33761943 578.35590977 240.50155127 582.40188075 244.66796875 586.66015625 C247.31879341 589.31986139 250.08751504 591.78063285 252.9375 594.22265625 C255.32464736 596.2797624 257.66234756 598.38684772 260 600.5 C262.89301214 603.11247763 265.79938235 605.70288562 268.75 608.25 C271.89868059 610.98521749 274.94879694 613.81295358 277.99023438 616.66577148 C282.79444217 621.17196907 287.59878671 625.57383605 292.75 629.6875 C297.38862944 633.39976585 301.53197707 637.43584926 305.6875 641.67578125 C308.97104567 644.97596651 312.45784867 647.98282549 316 651 C317.85697147 652.58993148 319.71160914 654.18248469 321.5637207 655.77807617 C322.85937455 656.89426606 324.15725696 658.00787633 325.45776367 659.1184082 C329.29147415 662.41933716 332.91482705 665.85738634 336.46606445 669.45996094 C338.18203273 671.18275704 339.96297028 672.79684597 341.8125 674.375 C345.69698886 677.72602907 349.50958059 681.15056621 353.3125 684.59375 C355.45695298 686.51378348 357.61897316 688.40681369 359.79296875 690.29296875 C364.80516431 694.6696664 369.61698046 699.25064259 374.43945312 703.83398438 C375.11556641 704.47271484 375.79167969 705.11144531 376.48828125 705.76953125 C377.09196533 706.34292236 377.69564941 706.91631348 378.31762695 707.50708008 C380.13755481 709.19091179 380.13755481 709.19091179 383 711 C383.41459656 713.65432739 383.41459656 713.65432739 383.4675293 717.06689453 C383.50592171 718.97995895 383.50592171 718.97995895 383.54508972 720.93167114 C383.5563187 722.33204024 383.56598905 723.73242257 383.57421875 725.1328125 C383.58894005 726.56810667 383.60381963 728.00339923 383.61885071 729.43869019 C383.64587656 732.45331315 383.65939673 735.46768894 383.66577148 738.48242188 C383.67660175 742.32999939 383.7381603 746.17492855 383.8124876 750.02173042 C383.86108954 752.99025043 383.87330607 755.95814493 383.87583351 758.92702866 C383.88302999 760.3440018 383.90337453 761.76097552 383.93753624 763.17755508 C384.1830007 774.2059189 384.1830007 774.2059189 381.29998779 778.57815552 C379.30036752 780.60517221 377.28125412 782.30194657 375 784 C373.65683111 785.17144736 372.3198657 786.35008723 370.9921875 787.5390625 C370.33186523 788.10786133 369.67154297 788.67666016 368.99121094 789.26269531 C365.61600644 792.20751572 362.37886544 795.29755857 359.125 798.375 C357.72188068 799.69326896 356.318236 801.01097897 354.9140625 802.328125 C352.16804912 804.90379988 352.16804912 804.90379988 349.42480469 807.48242188 C348.12297281 808.70351296 346.81185416 809.91468254 345.5 811.125 C344.46359375 812.08792969 344.46359375 812.08792969 343.40625 813.0703125 C337.03748664 818.17772987 330.75422754 821.03745063 322.921875 823.234375 C321.9665387 823.51343689 321.01120239 823.79249878 320.0269165 824.08001709 C317.9913097 824.67342155 315.95412928 825.26145063 313.91552734 825.84448242 C308.55646766 827.37747273 303.20883714 828.94954052 297.859375 830.515625 C296.81019897 830.82153564 295.76102295 831.12744629 294.68005371 831.44262695 C287.07401112 833.66562063 279.52513879 836.01563828 272 838.5 C259.59149524 842.57382694 247.08384336 846.29063081 234.5625 850 C221.0632915 853.99924687 207.56915782 858.00633231 194.125 862.1875 C192.99908447 862.53748047 191.87316895 862.88746094 190.71313477 863.24804688 C184.78601923 865.10081724 178.88448465 867.01598273 173 869 C172.47189528 871.31682751 171.98497346 873.6209161 171.56640625 875.9609375 C171 879 171 879 170.15234375 882.1015625 C169.39733528 885.81783173 169.17812539 888.27789772 170 892 C173.65360236 897.25343957 179.01433668 901.08779802 184 905 C185.32168175 906.13523021 186.63641506 907.27872122 187.9375 908.4375 C188.84048828 909.21673828 188.84048828 909.21673828 189.76171875 910.01171875 C193.64769643 913.46366053 197.42097766 917.03733693 201.21484375 920.58984375 C211.88061859 930.59823117 211.88061859 930.59823117 222.8125 940.3125 C227.45309495 944.33045747 231.90424768 948.55333148 236.37036133 952.76293945 C236.98032959 953.33616943 237.59029785 953.90939941 238.21875 954.5 C238.79468903 955.04928665 239.37062805 955.5985733 239.96401978 956.164505 C241.95142151 958.01829492 241.95142151 958.01829492 244.08424377 959.52780151 C249.54991573 963.65270593 249.54991573 963.65270593 250.73812866 967.20953369 C251.0185924 969.77672123 251.05309311 972.23845302 250.99609375 974.8203125 C251.00676376 975.77213409 251.01743378 976.72395569 251.02842712 977.70462036 C251.05492023 980.80407834 251.02691143 983.90059072 251 987 C251.01295096 989.12730787 251.03007411 991.25459424 251.05126953 993.38183594 C251.10549929 999.87997085 251.0881331 1006.37676788 251.0625 1012.875 C251.05746603 1015.13541566 251.05290653 1017.39583242 251.04882812 1019.65625 C251.03799332 1025.10419154 251.021411 1030.55209027 251 1036 C246.93900994 1037.75351324 242.87634477 1039.50311425 238.8125 1041.25 C238.19196747 1041.51677551 237.57143494 1041.78355103 236.93209839 1042.05841064 C229.68684648 1045.17022703 222.43076068 1048.25246904 215.140625 1051.2578125 C214.5024736 1051.5209021 213.8643222 1051.7839917 213.20683289 1052.05505371 C210.15201918 1053.31285368 207.0952677 1054.56560671 204.03637695 1055.81347656 C197.23133756 1058.60433745 190.53325636 1061.55332594 183.88574219 1064.70214844 C179.9977897 1066.45074027 176.07497116 1067.75678846 172 1069 C171.17757812 1068.2265625 170.35515625 1067.453125 169.5078125 1066.65625 C163.6598932 1061.18868318 157.77815564 1055.91920876 151.4609375 1050.9921875 C148.70539386 1048.76150931 146.10690375 1046.40244071 143.5 1044 C140.09168513 1040.85975484 136.64557149 1037.86108142 133 1035 C128.36216946 1031.36018362 124.0528382 1027.43070486 119.71875 1023.4375 C117.21060222 1021.18881578 114.64916787 1019.07909377 112 1017 C107.36216946 1013.36018362 103.0528382 1009.43070486 98.71875 1005.4375 C96.21060222 1003.18881578 93.64916787 1001.07909377 91 999 C87.35442851 996.13891858 83.90831487 993.14024516 80.5 990 C76.29313101 986.12447372 71.95712165 982.52389051 67.4609375 978.9921875 C64.05006616 976.23100594 60.83784877 973.27026686 57.59765625 970.3125 C53.91438475 967.03355756 50.08996036 963.94035159 46.25 960.84765625 C44 959 44 959 42 957 C41.80338988 954.32149415 41.73042874 951.74499568 41.74462891 949.06542969 C41.73919823 947.835868 41.73919823 947.835868 41.73365784 946.58146667 C41.72675393 944.79774846 41.72426026 943.01400908 41.72560501 941.23027802 C41.72656808 938.40550907 41.71365312 935.58112296 41.69662476 932.75640869 C41.6502926 924.72386682 41.625754 916.69136221 41.61914062 908.65869141 C41.61412202 903.74790283 41.58985011 898.83751112 41.55381393 893.92685699 C41.54401993 892.05623 41.54168181 890.18554837 41.54698563 888.31490326 C41.55406686 885.69355503 41.53675138 883.07338537 41.51416016 880.45214844 C41.52233261 879.68204941 41.53050507 878.91195038 41.53892517 878.11851501 C41.45972191 872.94085087 40.26430168 869.99377294 37 866 C33.36956632 863.45005253 30.35910588 863.86814984 26.125 864.453125 C23.14220836 865.2207552 21.75818962 866.50923137 20 869 C18.90575712 872.28272863 18.85555887 874.73814588 18.82641602 878.19506836 C18.81283554 879.481306 18.79925507 880.76754364 18.78526306 882.09275818 C18.77765615 883.12825711 18.77765615 883.12825711 18.76989555 884.18467522 C18.75367486 886.37103231 18.73155085 888.55725822 18.70777893 890.74354553 C18.67414616 893.85904491 18.64243858 896.97455452 18.61212158 900.09008789 C17.59185701 1002.33459726 17.59185701 1002.33459726 5 1020 C2.75 1020 2.75 1020 0 1019 C-17.90660998 992.7013248 -11.45608533 944.9663655 -11.50531006 914.94946289 C-11.51684838 908.62313236 -11.54034476 902.2970687 -11.58000183 895.97084999 C-11.59349485 893.03596666 -11.5894234 890.10145137 -11.58459473 887.16654968 C-11.59392955 885.37429331 -11.6040969 883.582041 -11.61523438 881.78979492 C-11.60601204 880.5813517 -11.60601204 880.5813517 -11.59660339 879.34849548 C-11.64935969 874.5135703 -12.31884333 871.18442872 -15 867 C-18.49845408 864.53518008 -20.33483168 863.96559474 -24.625 864.1875 C-29.56399008 865.2563995 -29.56399008 865.2563995 -33.09942627 868.56433105 C-34.397953 872.07629362 -34.19155651 875.47050812 -34.09667969 879.15820312 C-34.07089183 880.85794761 -34.04532865 882.55769552 -34.0199585 884.25744629 C-33.99460651 885.60658867 -33.99460651 885.60658867 -33.96874237 886.98298645 C-33.88861636 891.76699081 -33.87341306 896.55138649 -33.84765625 901.3359375 C-33.81208088 907.41555861 -33.75742139 913.49289637 -33.62646484 919.57128906 C-33.52217008 924.49158609 -33.48732737 929.40823526 -33.49741364 934.32957458 C-33.48880641 936.19555483 -33.45540088 938.06160574 -33.39571381 939.926651 C-32.92562465 955.23757101 -32.92562465 955.23757101 -38.02111816 960.73681641 C-40.9064869 963.39528874 -43.98747135 965.66695683 -47.25815582 967.82669067 C-49.85023584 969.57272037 -52.22426323 971.5652996 -54.625 973.5625 C-55.50414062 974.27535156 -56.38328125 974.98820313 -57.2890625 975.72265625 C-60.80424136 978.6756091 -64.16023127 981.78818178 -67.52001953 984.91430664 C-71.60687636 988.6954745 -75.88066533 992.19708704 -80.21875 995.6875 C-83.24019336 998.19971133 -86.12440078 1000.82402457 -89 1003.5 C-93.61001639 1007.7895776 -98.37783236 1011.80410897 -103.28515625 1015.75390625 C-106.10673495 1018.0883059 -108.80590712 1020.51990598 -111.5 1023 C-115.96636201 1027.11057783 -120.58383305 1030.96434593 -125.3046875 1034.77734375 C-128.86125711 1037.71022507 -132.26924569 1040.79022336 -135.6796875 1043.890625 C-142.76669233 1050.33335666 -150.06029821 1056.5581776 -157.43847656 1062.66503906 C-158.49698755 1063.56996997 -159.52502866 1064.51155775 -160.52246094 1065.48339844 C-162.0234375 1066.8984375 -162.0234375 1066.8984375 -165 1069 C-170.75598055 1068.74432558 -175.94041687 1066.13412183 -181.171875 1063.9140625 C-182.15988098 1063.50072662 -183.14788696 1063.08739075 -184.16583252 1062.66152954 C-187.36315985 1061.32213234 -190.55659247 1059.97371273 -193.75 1058.625 C-195.93206753 1057.7087759 -198.11435954 1056.79308627 -200.296875 1055.87792969 C-205.59204936 1053.65570428 -210.88409329 1051.42615499 -216.17456055 1049.19274902 C-218.71558506 1048.12006474 -221.25707099 1047.04848591 -223.79882812 1045.97753906 C-230.87098662 1042.99696533 -237.93769078 1040.00383137 -245 1037 C-245.02588666 1030.58521412 -245.0430848 1024.17044221 -245.05493164 1017.75561523 C-245.0598833 1015.58471168 -245.06664639 1013.41381131 -245.07543945 1011.24291992 C-245.10466667 1003.82780374 -245.08554436 996.41471641 -245 989 C-244.98781433 987.91647247 -244.97562866 986.83294495 -244.96307373 985.71658325 C-244.91506155 982.54952603 -244.83621994 979.38486114 -244.74609375 976.21875 C-244.73224136 975.26153549 -244.71838898 974.30432098 -244.70411682 973.31809998 C-244.55266361 969.10136886 -244.40204825 966.64113225 -242.1237793 963.00805664 C-239.59175696 960.68851577 -236.84510309 958.92502799 -234 957 C-231.12621016 954.46035498 -228.38276708 951.78946492 -225.625 949.125 C-224.15177714 947.73091654 -222.67653683 946.33896174 -221.19921875 944.94921875 C-220.1306665 943.9425415 -220.1306665 943.9425415 -219.04052734 942.91552734 C-213.16800121 937.40274437 -207.24616737 931.94540261 -201.1640625 926.6640625 C-196.99133005 923.02194951 -192.95523973 919.24905629 -188.9375 915.4375 C-184.52232078 911.25211436 -180.10280694 907.07698095 -175.59765625 902.98828125 C-174.90744385 902.35801025 -174.21723145 901.72773926 -173.50610352 901.07836914 C-172.1963019 899.88461177 -170.88061006 898.69727645 -169.55834961 897.51733398 C-168.97190674 896.98052002 -168.38546387 896.44370605 -167.78125 895.890625 C-167.0087793 895.19501465 -167.0087793 895.19501465 -166.22070312 894.48535156 C-164.21037958 892.03918988 -163.93265798 889.91455136 -164.16186523 886.80175781 C-164.35824585 885.63918457 -164.35824585 885.63918457 -164.55859375 884.453125 C-164.68290771 883.69161133 -164.80722168 882.93009766 -164.93530273 882.14550781 C-165.10102783 881.18999023 -165.26675293 880.23447266 -165.4375 879.25 C-165.716777 877.60002786 -165.99546664 875.94995623 -166.27368164 874.29980469 C-166.41077042 873.48823914 -166.54785919 872.67667358 -166.68910217 871.84051514 C-166.8429966 870.92946014 -166.8429966 870.92946014 -167 870 C-184.7151296 864.46726426 -202.45374704 859.02506048 -220.23629761 853.71221924 C-225.99681016 851.99101772 -231.75605722 850.26559268 -237.51532555 848.54023361 C-238.85761747 848.13812768 -240.19992427 847.73607137 -241.54224586 847.33406448 C-257.15628107 842.65781919 -272.76265691 837.95623676 -288.36746979 833.24932098 C-290.41866048 832.630682 -292.46991021 832.01223917 -294.5211792 831.39385986 C-298.36713459 830.23442611 -302.21288412 829.07431117 -306.05859375 827.9140625 C-307.73931725 827.40734009 -307.73931725 827.40734009 -309.45399475 826.89038086 C-311.57827651 826.24913055 -313.70139738 825.6040191 -315.82321167 824.95465088 C-318.04964028 824.28559087 -320.28402239 823.64270004 -322.52371216 823.01947021 C-323.67354584 822.69126282 -324.82337952 822.36305542 -326.00805664 822.02490234 C-327.04201065 821.73900238 -328.07596466 821.45310242 -329.14125061 821.15853882 C-334.26948044 819.08026874 -337.40015645 815.05851088 -341 811 C-342.20620098 809.87079057 -343.4352348 808.76539916 -344.6875 807.6875 C-345.33074219 807.13320313 -345.97398437 806.57890625 -346.63671875 806.0078125 C-347.951761 804.89056999 -349.26724788 803.77384818 -350.58447266 802.65917969 C-363.76767893 791.49820874 -363.76767893 791.49820874 -369.05859375 785.9140625 C-370.84007095 784.00097807 -370.84007095 784.00097807 -372.68692017 783.01116943 C-376.1132483 780.77508178 -377.76072057 779.06551469 -378.67304993 775.00289917 C-378.9446734 771.1523518 -379.0012594 767.33337769 -378.96484375 763.4765625 C-378.97210894 762.04697601 -378.98130127 760.61739814 -378.99232483 759.18783569 C-379.00712379 756.1966392 -378.99623026 753.20690528 -378.9675293 750.21582031 C-378.93329546 746.39940753 -378.96653855 742.58709404 -379.01973629 738.77102089 C-379.05269574 735.81946671 -379.04761405 732.86887558 -379.0315876 729.91721725 C-379.02878442 728.5115108 -379.03796034 727.10572349 -379.05979729 725.70018387 C-379.19955154 714.80102566 -379.19955154 714.80102566 -376.28640747 710.42718506 C-374.29021322 708.40426471 -372.27266864 706.70074328 -370 705 C-368.70128057 703.86216669 -367.40858269 702.71738193 -366.125 701.5625 C-365.135 700.70978516 -365.135 700.70978516 -364.125 699.83984375 C-360.89145172 697.04020912 -357.72528419 694.16698648 -354.55078125 691.30078125 C-352.92672663 689.8358989 -351.29946215 688.37456169 -349.66796875 686.91796875 C-344.57206737 682.36292589 -339.55272384 677.73254908 -334.5625 673.0625 C-327.15314615 666.12853327 -319.72383612 659.21907073 -312.0625 652.5625 C-304.92635225 646.35463164 -298.02781302 639.87498721 -291.08154297 633.45654297 C-274.71702705 618.33625517 -274.71702705 618.33625517 -268.125 612.625 C-262.88104281 608.06457287 -257.80963032 603.31417012 -252.71435547 598.58935547 C-230.82757151 578.29841791 -230.82757151 578.29841791 -223.125 571.625 C-217.88261524 567.06594034 -212.81255275 562.31709436 -207.71875 557.59375 C-187.96557971 539.27717391 -187.96557971 539.27717391 -179.3125 531.8125 C-175.39570509 528.40109798 -171.60519127 524.86033214 -167.8125 521.3125 C-167.16845215 520.71042725 -166.5244043 520.10835449 -165.86083984 519.48803711 C-163.2863088 517.07973916 -160.71253187 514.67069548 -158.14550781 512.25439453 C-156.41297031 510.62418709 -154.67564798 508.99922109 -152.9375 507.375 C-152.42614502 506.89071533 -151.91479004 506.40643066 -151.38793945 505.9074707 C-148.13221977 502.87432775 -144.71829322 500.430337 -141 498 C-140.85387503 507.74475792 -140.72303459 517.48968856 -140.59695053 527.23472214 C-140.56252645 529.87297259 -140.52711225 532.51120847 -140.49160767 535.14944458 C-140.12623326 562.64676695 -139.95602884 590.14241089 -139.8772791 617.64178634 C-139.8578609 624.37362966 -139.83508138 631.10545493 -139.81022644 637.83728027 C-139.80671439 638.79567849 -139.80320233 639.75407671 -139.79958385 640.74151731 C-139.78530394 644.63131706 -139.77097634 648.52111659 -139.7563051 652.4109149 C-139.71222225 664.15738816 -139.68102932 675.90374631 -139.66920471 687.65029746 C-139.66061826 695.16959923 -139.63763607 702.6887746 -139.6040144 710.20800561 C-139.58480636 714.62927024 -139.57258339 719.05029637 -139.57767105 723.4716053 C-139.58230536 727.57660858 -139.56858248 731.68113317 -139.54056633 735.78603959 C-139.53363897 737.28249226 -139.53349521 738.77899449 -139.54073155 740.2754457 C-139.54961782 742.31583026 -139.53158417 744.35627885 -139.51225281 746.39659119 C-139.50986445 747.53429931 -139.5074761 748.67200743 -139.50501537 749.84419155 C-138.88271414 753.73291179 -137.42314433 755.93221945 -135 759 C-131.51046858 760.74476571 -127.80705813 760.57489133 -124 760 C-120.95470028 758.42701461 -118.50834024 756.46788217 -117.35021842 753.1236921 C-116.96670991 750.79813196 -116.88454405 748.62846852 -116.89650536 746.27092648 C-116.8988312 745.31731415 -116.90115704 744.36370182 -116.90355337 743.38119215 C-116.91124105 742.33588931 -116.91892873 741.29058647 -116.92684937 740.21360779 C-116.9309339 739.09989447 -116.93501844 737.98618116 -116.93922675 736.83871895 C-116.95402275 733.08832592 -116.97590332 729.3380057 -116.99755859 725.58764648 C-117.00930101 722.90043198 -117.020599 720.21321984 -117.03118896 717.52600098 C-117.05156059 712.46696209 -117.07361251 707.40793548 -117.09755798 702.34891225 C-117.14490303 692.28643118 -117.17675778 682.22394832 -117.20303345 672.16139221 C-117.20726278 670.56576186 -117.2114934 668.97013151 -117.2157253 667.37450117 C-117.22425455 664.13996588 -117.2326981 660.90543038 -117.24109197 657.67089474 C-117.26276626 649.33471147 -117.28507631 640.99853043 -117.30908203 632.66235352 C-117.31148371 631.82629659 -117.31388538 630.99023965 -117.31635983 630.12884767 C-117.3504438 618.47575579 -117.39968177 606.82281025 -117.46041599 595.16982837 C-117.5651874 575.0286301 -117.63710386 554.88757739 -117.6484375 534.74609375 C-117.64892967 533.95800967 -117.64942184 533.16992558 -117.64992893 532.35796016 C-117.74101683 347.75386034 -117.74101683 347.75386034 -90 312 C-89.51789063 311.36191406 -89.03578125 310.72382813 -88.5390625 310.06640625 C-83.91107399 304.27473276 -77.64761198 298.32380599 -71 295 C-70.86885396 322.06194132 -70.73843145 349.12388604 -70.60884857 376.18583488 C-70.54865201 388.75377439 -70.4882269 401.32171271 -70.42724609 413.88964844 C-70.37403849 424.8556786 -70.32127768 435.8217108 -70.26903296 446.78774559 C-70.23603965 453.70918123 -70.20255735 460.63061424 -70.1686511 467.55204546 C-70.14758411 471.88896766 -70.12725847 476.22589324 -70.10689068 480.56281877 C-70.09207422 483.62193702 -70.07590714 486.68104584 -70.05954742 489.74015617 C-70.01753183 498.01017475 -69.98560819 506.27849595 -70.05688477 514.54840088 C-70.06546761 515.77092623 -70.07405045 516.99345158 -70.08289337 518.25302315 C-70.10090205 520.37654854 -70.12711447 522.50003356 -70.16460419 524.62330437 C-70.21750218 530.86856803 -70.16203442 536.52001935 -65.875 541.4375 C-62.1855454 543.44263837 -59.06295871 543.80148209 -55 543 C-50.27576744 540.5644933 -50.27576744 540.5644933 -48 536 C-47.91255163 534.62186385 -47.87977954 533.23984712 -47.8825388 531.85894203 C-47.88178114 531.01132164 -47.88102349 530.16370124 -47.88024288 529.29039538 C-47.88451997 528.35865823 -47.88879705 527.42692107 -47.89320374 526.46694946 C-47.8940388 524.98173957 -47.8940388 524.98173957 -47.89489073 523.46652544 C-47.89793908 520.13081674 -47.90813194 516.79516697 -47.91821289 513.45947266 C-47.92176834 511.07214928 -47.92485451 508.68482516 -47.92750549 506.29750061 C-47.93407399 501.13785657 -47.94356886 495.97822634 -47.95540047 490.81859207 C-47.97244861 483.30091051 -47.98195456 475.78323278 -47.9892792 468.26553611 C-48.00124927 455.99244919 -48.01618679 443.71936827 -48.03442383 431.44628906 C-48.03551395 430.71124371 -48.03660407 429.97619836 -48.03772723 429.21887891 C-48.05318007 418.89715984 -48.07174535 408.57544892 -48.0917251 398.25373773 C-48.09311842 397.53385194 -48.09451173 396.81396614 -48.09594727 396.07226562 C-48.0973408 395.35328427 -48.09873433 394.63430292 -48.10017008 393.89353426 C-48.12354169 381.72634454 -48.1386454 369.5591598 -48.14750665 357.39195096 C-48.15273934 350.59333148 -48.16195857 343.79477054 -48.18089485 336.99617386 C-48.43511997 243.57970759 -46.79399961 145.37850102 0 0 Z M-19.94921875 163.82421875 C-28.49047443 172.93847271 -28.4638119 182.28637235 -28.43359375 194.1796875 C-28.4381628 195.75855736 -28.44347051 197.33742524 -28.44947815 198.91629028 C-28.45838217 202.21624865 -28.45601785 205.51596467 -28.44604492 208.81591797 C-28.43456777 213.0210228 -28.45476069 217.22528628 -28.48396206 221.43028069 C-28.50241108 224.68878392 -28.50201425 227.94708883 -28.49632454 231.20563126 C-28.49617234 232.75480452 -28.50213215 234.30399211 -28.51461601 235.85311508 C-28.59182832 247.00495524 -27.72895951 256.90623442 -19.77734375 265.46484375 C-11.64974736 272.48494349 -3.42402233 273.68440551 7 273 C14.59370306 271.79846471 20.01303577 267.73114301 25 262 C29.6386257 254.83221886 31.10691249 248.22019219 31.16113281 239.72607422 C31.17074036 238.50395233 31.1803479 237.28183044 31.19024658 236.02267456 C31.19449646 234.71323883 31.19874634 233.4038031 31.203125 232.0546875 C31.20595238 231.38011631 31.20877975 230.70554512 31.21169281 230.01053238 C31.22663914 226.4370307 31.235896 222.86356888 31.24023438 219.29003906 C31.24569689 215.63227598 31.26969054 211.97488929 31.29820633 208.31724358 C31.31700205 205.47560628 31.32204731 202.63405637 31.32357025 199.79236221 C31.32799982 197.7985322 31.34656433 195.80474928 31.36553955 193.81100464 C31.33604 181.6121494 30.13027414 171.9214372 21.328125 163.0625 C9.03306332 152.17023059 -8.04332345 152.68182775 -19.94921875 163.82421875 Z " fill="#FEFEFE" transform="translate(378,0)"/>
<path d="M0 0 C0.66 0.33 1.32 0.66 2 1 C-2.52361198 5.63188993 -7.13344592 10.05844592 -12.0546875 14.265625 C-14.03550857 16.03165824 -15.85565869 17.89342815 -17.6875 19.8125 C-20.25198617 22.43580466 -22.38368285 24.01373169 -26 25 C-22.3909093 20.57886389 -18.71092533 16.73599099 -14.3671875 13.04296875 C-11.35482771 10.44319289 -8.42779788 7.75672908 -5.5 5.0625 C-4.95907715 4.56524414 -4.4181543 4.06798828 -3.86083984 3.55566406 C-2.5731891 2.37120773 -1.28649101 1.18571588 0 0 Z " fill="#EEEEEE" transform="translate(195,535)"/>
<path d="M0 0 C0.66 0.33 1.32 0.66 2 1 C-4.1414118 7.24301604 -10.30392531 13.34491171 -17 19 C-18.33372643 20.14537575 -19.66707855 21.29118756 -21 22.4375 C-21.99 23.283125 -22.98 24.12875 -24 25 C-24.66 24.67 -25.32 24.34 -26 24 C-17.39008558 15.93619351 -8.75840352 7.90259278 0 0 Z " fill="#EDEDED" transform="translate(62,656)"/>
<path d="M0 0 C0.33 0 0.66 0 1 0 C1 2.64 1 5.28 1 8 C0.34 7.67 -0.32 7.34 -1 7 C-1 6.34 -1 5.68 -1 5 C-1.66 4.67 -2.32 4.34 -3 4 C-3 4.66 -3 5.32 -3 6 C-4.5390625 7.515625 -4.5390625 7.515625 -6.625 9.25 C-10.27360004 12.34676552 -13.65896986 15.57544411 -17 19 C-17.66 18.67 -18.32 18.34 -19 18 C-13.71494515 11.38015314 -7.62643551 6.23924053 -1 1 C-0.67 0.67 -0.34 0.34 0 0 Z " fill="#EBEBEB" transform="translate(306,295)"/>
<path d="M0 0 C0.66 0.33 1.32 0.66 2 1 C-5.65765164 8.79887883 -13.57503366 16.04940277 -22 23 C-20.40584497 19.08790692 -17.86106668 16.62781914 -14.875 13.6875 C-14.14337646 12.96554443 -14.14337646 12.96554443 -13.39697266 12.22900391 C-9.40479771 8.32051687 -5.25601657 4.61875206 -1 1 C-0.67 0.67 -0.34 0.34 0 0 Z " fill="#ECECEC" transform="translate(173,930)"/>
<path d="M0 0 C0.66 0.33 1.32 0.66 2 1 C-12.21359223 15.47572816 -12.21359223 15.47572816 -19 20 C-15.47222991 11.77472553 -6.69267574 5.67145001 0 0 Z " fill="#ECECEC" transform="translate(106,616)"/>
<path d="M0 0 C3 0 3 0 5.0625 1.9375 C5.48015625 2.38351562 5.8978125 2.82953125 6.328125 3.2890625 C10.01738968 7.06452496 14.06075169 10.48909714 18 14 C13.95983547 14 13.0433941 12.53130788 10.125 9.8125 C9.24328125 8.99523438 8.3615625 8.17796875 7.453125 7.3359375 C4.92473521 4.92833066 2.42779902 2.50872566 0 0 Z " fill="#EDEDED" transform="translate(498,1023)"/>
<path d="M0 0 C3.18849773 0.58496204 4.8929959 1.4983461 7.234375 3.72265625 C7.80800781 4.26083984 8.38164062 4.79902344 8.97265625 5.35351562 C9.55917969 5.91748047 10.14570313 6.48144531 10.75 7.0625 C11.35199219 7.63033203 11.95398438 8.19816406 12.57421875 8.78320312 C14.05563212 10.18231575 15.5286488 11.59030947 17 13 C13.54791241 13 13.14460748 12.58418161 10.64453125 10.41015625 C10.02255859 9.87326172 9.40058594 9.33636719 8.75976562 8.78320312 C8.11716797 8.21537109 7.47457031 7.64753906 6.8125 7.0625 C5.83120117 6.21655273 5.83120117 6.21655273 4.83007812 5.35351562 C1.3312706 2.30710866 1.3312706 2.30710866 0 1 C0 0.67 0 0.34 0 0 Z " fill="#EDEDED" transform="translate(478,1006)"/>
<path d="M0 0 C4.68904588 1.42300113 7.51610475 4.15696334 10.8125 7.625 C11.31458984 8.140625 11.81667969 8.65625 12.33398438 9.1875 C13.56296227 10.45159154 14.78246001 11.72488806 16 13 C12.55254353 13 12.25874198 12.65820401 9.86328125 10.41015625 C9.28642578 9.87326172 8.70957031 9.33636719 8.11523438 8.78320312 C7.52033203 8.21537109 6.92542969 7.64753906 6.3125 7.0625 C5.70599609 6.49853516 5.09949219 5.93457031 4.47460938 5.35351562 C2.95776986 3.9288126 1.47569682 2.46727629 0 1 C0 0.67 0 0.34 0 0 Z " fill="#EFEFEF" transform="translate(12,788)"/>
<path d="M0 0 C4.82829428 1.48700714 7.7487769 4.21283256 11.3125 7.625 C12.13717773 8.3984375 12.13717773 8.3984375 12.97851562 9.1875 C14.32498054 10.45200618 15.66332535 11.72514922 17 13 C13.54791241 13 13.14460748 12.58418161 10.64453125 10.41015625 C10.02255859 9.87326172 9.40058594 9.33636719 8.75976562 8.78320312 C8.11716797 8.21537109 7.47457031 7.64753906 6.8125 7.0625 C5.83120117 6.21655273 5.83120117 6.21655273 4.83007812 5.35351562 C1.3312706 2.30710866 1.3312706 2.30710866 0 1 C0 0.67 0 0.34 0 0 Z " fill="#ECECEC" transform="translate(436,970)"/>
<path d="M0 0 C0 1.65 0 3.3 0 5 C-0.99 5 -1.98 5 -3 5 C-5.04913138 6.50253173 -5.04913138 6.50253173 -7.0625 8.4375 C-10.8410596 11.9205298 -10.8410596 11.9205298 -13 13 C-11.61536056 9.87250593 -10.00477577 7.7595015 -7.5625 5.375 C-6.96566406 4.78460938 -6.36882812 4.19421875 -5.75390625 3.5859375 C-1.78817734 0 -1.78817734 0 0 0 Z " fill="#E9E9E9" transform="translate(237,498)"/>
<path d="M0 0 C0.99 0.33 1.98 0.66 3 1 C-0.3 3.97 -3.6 6.94 -7 10 C-7.66 9.67 -8.32 9.34 -9 9 C-6.03 6.03 -3.06 3.06 0 0 Z " fill="#F1F1F1" transform="translate(741,791)"/>
<path d="M0 0 C4.10447392 0.51776621 5.95699523 2.64627444 8.75 5.5625 C9.94882812 6.80193359 9.94882812 6.80193359 11.171875 8.06640625 C11.77515625 8.70449219 12.3784375 9.34257813 13 10 C8.87731395 10 7.79669528 8.32277298 4.8125 5.5625 C3.91144531 4.73878906 3.01039063 3.91507813 2.08203125 3.06640625 C1.39496094 2.38449219 0.70789063 1.70257812 0 1 C0 0.67 0 0.34 0 0 Z " fill="#E9E9E9" transform="translate(734,689)"/>
<path d="M0 0 C7.48291572 6.15034169 7.48291572 6.15034169 10 10 C7.00779732 8.63629701 4.70973471 7.05091917 2.25 4.875 C1.63640625 4.33617187 1.0228125 3.79734375 0.390625 3.2421875 C-0.06828125 2.83226562 -0.5271875 2.42234375 -1 2 C-0.67 1.34 -0.34 0.68 0 0 Z " fill="#ECECEC" transform="translate(704,660)"/>
<path d="M0 0 C0.99 0.33 1.98 0.66 3 1 C2.51789062 1.39832031 2.03578125 1.79664063 1.5390625 2.20703125 C0.59160156 3.00173828 0.59160156 3.00173828 -0.375 3.8125 C-1.00148438 4.33457031 -1.62796875 4.85664062 -2.2734375 5.39453125 C-4.2221048 7.08225739 -4.2221048 7.08225739 -6 10 C-5.58578031 5.16743695 -3.53586014 3.17320782 0 0 Z " fill="#E7E7E7" transform="translate(6,707)"/>
<path d="M0 0 C2.37948772 0.17625835 3.70225849 0.69719773 5.37890625 2.40234375 C6.62115486 3.90649092 7.81376056 5.45129851 9 7 C5.18315774 5.44499019 2.80804268 2.96404505 0 0 Z " fill="#EEEEEE" transform="translate(673,634)"/>
<path d="M0 0 C2.37948772 0.17625835 3.70225849 0.69719773 5.37890625 2.40234375 C6.62115486 3.90649092 7.81376056 5.45129851 9 7 C5.18315774 5.44499019 2.80804268 2.96404505 0 0 Z " fill="#EEEEEE" transform="translate(643,607)"/>
</svg>
